<svg xmlns="http://www.w3.org/2000/svg" xmlns:xlink="http://www.w3.org/1999/xlink" xmlns:lucid="lucid" width="4515.6" height="1796.22"><g transform="translate(0 0)" lucid:page-tab-id="0zeGYG.TUQLB"><path d="M0 0h4515.6v1796.22H0z" fill="#fff"/><path d="M1249.5 784h240v60h-240z" fill="none"/><use xlink:href="#a" transform="matrix(1,0,0,1,1249.5,784) translate(44.49236111111112 33.81111111111111)"/><use xlink:href="#b" transform="matrix(1,0,0,1,1249.5,784) translate(89.90810185185185 33.81111111111111)"/><use xlink:href="#c" transform="matrix(1,0,0,1,1249.5,784) translate(132.14791666666667 33.81111111111111)"/><path d="M514.5 637h240v31.96h-240z" fill="none"/><use xlink:href="#a" transform="matrix(1,0,0,1,514.5,637) translate(51.34706790123457 19.81111111111111)"/><use xlink:href="#d" transform="matrix(1,0,0,1,514.5,637) translate(96.76280864197531 19.81111111111111)"/><use xlink:href="#e" transform="matrix(1,0,0,1,514.5,637) translate(148.5304012345679 19.81111111111111)"/><path d="M1911 5a5 5 0 0 1 5-5h526.78a5 5 0 0 1 5 5v83.24a5 5 0 0 1-5 5H1916a5 5 0 0 1-5-5z" stroke="#000" stroke-opacity="0" stroke-width="2" fill="#fff" fill-opacity="0"/><use xlink:href="#f" transform="matrix(1,0,0,1,1911,0) translate(100.8775 54.6135)"/><use xlink:href="#g" transform="matrix(1,0,0,1,1911,0) translate(290.185 54.6135)"/><use xlink:href="#h" transform="matrix(1,0,0,1,1911,0) translate(368.15816666666666 54.6135)"/><path d="M2004.83 90.2h369.62M2004.85 90.2h-1.02M2374.42 90.2h1.03" stroke="#b2b2b2" stroke-width="2" fill="none"/><path d="M1911.53 47.87a5 5 0 0 1 5-5h527.4a5 5 0 0 1 5 5V215.5a5 5 0 0 1-5 5h-527.4a5 5 0 0 1-5-5z" stroke="#000" stroke-opacity="0" stroke-width="2" fill="#fff" fill-opacity="0"/><use xlink:href="#i" transform="matrix(1,0,0,1,1916.531207992951,47.87196324843815) translate(16.349833333333322 70.176)"/><use xlink:href="#j" transform="matrix(1,0,0,1,1916.531207992951,47.87196324843815) translate(139.61983333333333 70.176)"/><use xlink:href="#k" transform="matrix(1,0,0,1,1916.531207992951,47.87196324843815) translate(323.1551666666667 70.176)"/><use xlink:href="#l" transform="matrix(1,0,0,1,1916.531207992951,47.87196324843815) translate(351.82033333333334 70.176)"/><use xlink:href="#m" transform="matrix(1,0,0,1,1916.531207992951,47.87196324843815) translate(195.51666666666665 112.44000000000001)"/><use xlink:href="#n" transform="matrix(1,0,0,1,1916.531207992951,47.87196324843815) translate(254.21666666666664 112.44000000000001)"/><a xlink:href="https://www.lucidchart.com" target="_blank"><path d="M2033.5 253a8 8 0 0 1 8-8h291.26a8 8 0 0 1 8 8v75.97a8 8 0 0 1-8 8H2041.5a8 8 0 0 1-8-8z" stroke="#fff" fill="#fe5900"/><path d="M2283.15 294.9c3.25 0 4.8-1.84 2.5-2.7l-94.5-37.85-94.66 37.94c-2.32.83-.78 2.6 2.48 2.6h16.53v34.4h50.3v-28.66h43.24v28.67h50.48v-34.4h23.63zM2137 257.64h-28.6v20.16l28.6-11.42v-8.73z" fill="#fe9359"/><use xlink:href="#o" transform="matrix(1,0,0,1,2038.5,250) translate(-10.125916666666738 48.044)"/><path class="lucid-link lucid-hotspot lucid-overlay-hotspot" d="M2033.5 253a8 8 0 0 1 8-8h291.26a8 8 0 0 1 8 8v75.97a8 8 0 0 1-8 8H2041.5a8 8 0 0 1-8-8z" fill="none"/><path class="lucid-link lucid-hotspot lucid-overlay-hotspot" d="M2283.15 294.9c3.25 0 4.8-1.84 2.5-2.7l-94.5-37.85-94.66 37.94c-2.32.83-.78 2.6 2.48 2.6h16.53v34.4h50.3v-28.66h43.24v28.67h50.48v-34.4h23.63zM2137 257.64h-28.6v20.16l28.6-11.42v-8.73z" fill="none"/></a><path d="M1200.5 498a8 8 0 0 1 8-8H1413a8 8 0 0 1 8 8v70.3a8 8 0 0 1-8 8h-204.5a8 8 0 0 1-8-8z" stroke="#fff" fill="#fe5900"/><path d="M1281.67 528.7c11.57 0 21.1-4.97 21.1-11 0-6.12-9.53-11.02-21.1-11.02-11.58 0-21.08 4.9-21.08 11 0 6.05 9.5 11 21.07 11m.4 4.33c-20.1 0-36.63 8.85-38.44 20.15-.27 1.43.97 2.8 3.17 3.6 10.2 3.3 22.32 5.25 35.3 5.25 12.95 0 25.06-1.94 35.27-5.26 2.33-.78 3.44-2.16 3.3-3.6-1.94-11.3-18.48-20.13-38.6-20.13m73.46 1.23v-5.68l10.76-3.23v-3.17h-10.77v-4.6l11.18-3.88v-5.83h-22.32v27.04c-9.8 1.8-16.8 6.62-16.8 12.37 0 7.2 11.28 13.1 25.2 13.1 13.93 0 25.22-5.9 25.22-13.1 0-6.76-9.92-12.3-22.47-13.02m-2.75 20.28c-7.72 0-13.92-3.22-13.92-7.25 0-4.02 6.2-7.34 13.92-7.34 7.7 0 13.93 3.33 13.93 7.35 0 4.03-6.2 7.26-13.92 7.26" fill="#fe9359"/><use xlink:href="#p" transform="matrix(1,0,0,1,1205.5,495) translate(-7.7910000000000235 45.544)"/><path d="M2187.13 338.97v62.52a12 12 0 0 1-12 12h-852.38a12 12 0 0 0-12 12v43.38" stroke="#fcc438" stroke-width="3" fill="none"/><path d="M2188.63 339h-3v-1.53h3z" stroke="#fcc438" stroke-width=".05" fill="#fcc438"/><path d="M1310.75 484.65l-4.63-14.27h9.27z" stroke="#fcc438" stroke-width="3" fill="#fcc438"/><path d="M441 848.36a8 8 0 0 1 8-8h144a8 8 0 0 1 8 8v104a8 8 0 0 1-8 8H449a8 8 0 0 1-8-8z" stroke="#fff" fill="#fe5900"/><path d="M564.6 950.36v-100h-85.2v100h85.2zm-46.3-18.5h-22.2c-3.1 0-5.6-2.5-5.6-5.6 0-3 2.5-5.5 5.6-5.5h22.2c3.1 0 5.6 2.5 5.6 5.5 0 3.1-2.5 5.6-5.6 5.6m35.2-31.9h-63v-11.1h63v11.1zm-63-29.6h63.6v11.1h-63.6v-11.1zm63.6 42.3h-63.6v-3.7h63.6v3.7z" fill="#fe9359"/><use xlink:href="#q" transform="matrix(1,0,0,1,446,845.3600621237531) translate(32.00224999999999 62.044)"/><path d="M1157.3 905.57a8 8 0 0 1 8-8h144a8 8 0 0 1 8 8v104a8 8 0 0 1-8 8h-144a8 8 0 0 1-8-8z" stroke="#fff" fill="#fe5900"/><path d="M1280.9 1007.57v-100h-85.2v100h85.2zm-46.32-18.5h-22.2c-3.1 0-5.6-2.5-5.6-5.6 0-3 2.5-5.5 5.6-5.5h22.2c3.1 0 5.6 2.5 5.6 5.5 0 3.1-2.5 5.6-5.6 5.6m35.2-31.9h-63v-11.1h63v11.1zm-63-29.6h63.6v11.1h-63.6v-11.1zm63.6 42.3h-63.6v-3.7h63.6v3.7z" fill="#fe9359"/><use xlink:href="#r" transform="matrix(1,0,0,1,1162.2891630646293,902.5698936747644) translate(9.598416666666653 62.044)"/><path d="M1310.75 578.3v9.5a12 12 0 0 1-12 12h-25a12 12 0 0 0-12 12v53.57a12 12 0 0 1-12 12H533a12 12 0 0 0-12 12v129.87" stroke="#fcc438" stroke-width="3" fill="none"/><path d="M1312.25 578.35h-3v-1.54h3z" stroke="#fcc438" stroke-width=".05" fill="#fcc438"/><path d="M521 835l-4.63-14.26h9.26z" stroke="#fcc438" stroke-width="3" fill="#fcc438"/><path d="M1310.75 578.3v146.64a12 12 0 0 1-12 12h-49.46a12 12 0 0 0-12 12v127.5" stroke="#fcc438" stroke-width="3" fill="none"/><path d="M1312.25 578.35h-3v-1.54h3z" stroke="#fcc438" stroke-width=".05" fill="#fcc438"/><path d="M1237.3 892.22l-4.65-14.27h9.27z" stroke="#fcc438" stroke-width="3" fill="#fcc438"/><path d="M294 1539.93a8 8 0 0 1 8-8h144a8 8 0 0 1 8 8v104a8 8 0 0 1-8 8H302a8 8 0 0 1-8-8z" stroke="#fff" fill="#fe5900"/><path d="M331.3 1632.13h85.4c2.8 0 4.6-3.1 3.1-5.5l-42.7-69.5c-1.4-2.3-4.8-2.3-6.2 0l-42.7 69.5c-1.5 2.4.3 5.5 3.1 5.5m37.2-18.1v-.1h11v10.9h-11v-10.8zm0-32.9h11v25.5h-11v-25.5z" fill="#fe9359"/><use xlink:href="#s" transform="matrix(1,0,0,1,299,1536.9264245485174) translate(24.224499999999992 40.91199999999999)"/><use xlink:href="#t" transform="matrix(1,0,0,1,299,1536.9264245485174) translate(32.00224999999999 83.176)"/><path d="M1102.5 1184a8 8 0 0 1 8-8h144a8 8 0 0 1 8 8v101.24a8 8 0 0 1-8 8h-144a8 8 0 0 1-8-8z" stroke="#fff" fill="#fe5900"/><path d="M1139.8 1273.9h85.4c2.8 0 4.6-3.03 3.1-5.38l-42.7-67.9c-1.4-2.25-4.8-2.25-6.2 0l-42.7 67.9c-1.5 2.35.3 5.38 3.1 5.38m37.2-17.7v-.1h11v10.67h-11v-10.56zm0-32.13h11V1248.97h-11V1224.08z" fill="#fe9359"/><use xlink:href="#u" transform="matrix(1,0,0,1,1107.5,1181) translate(25.251749999999987 39.91199999999999)"/><use xlink:href="#v" transform="matrix(1,0,0,1,1107.5,1181) translate(46.677249999999994 82.176)"/><path d="M1176.8 1019.57v26.5a12 12 0 0 1-12 12H1074a12 12 0 0 0-12 12v152.55a12 12 0 0 0 12 12h7.38" stroke="#fcc438" stroke-width="3" fill="none"/><path d="M1178.3 1019.6h-3v-1.53h3z" stroke="#fcc438" stroke-width=".05" fill="#fcc438"/><path d="M1097.15 1234.62l-14.27 4.64v-9.28z" stroke="#fcc438" stroke-width="3" fill="#fcc438"/><path d="M2353.75 413.07a8 8 0 0 1 8-8h144a8 8 0 0 1 8 8v70.02a8 8 0 0 1-8 8h-144a8 8 0 0 1-8-8z" stroke="#fff" fill="#fe5900"/><use xlink:href="#w" transform="matrix(1,0,0,1,2358.75,410.07327439804624) translate(36.942833333333326 28.176000000000005)"/><use xlink:href="#x" transform="matrix(1,0,0,1,2358.75,410.07327439804624) translate(33.91 70.44000000000001)"/><path d="M2187.13 338.97v20.05a12 12 0 0 0 12 12h222.62a12 12 0 0 1 12 12v20.05" stroke="#fcc438" stroke-width="3" fill="none"/><path d="M2188.63 339h-3v-1.53h3zM2435.25 404.57h-3v-1.53h3z" stroke="#fcc438" stroke-width=".05" fill="#fcc438"/><path d="M54.25 1545.7a8 8 0 0 1 8-8h144a8 8 0 0 1 8 8v104a8 8 0 0 1-8 8h-144a8 8 0 0 1-8-8z" stroke="#fff" fill="#fe5900"/><path d="M180.55 1574.22l-15.7-15.7-45 45-16.2-16.2-15.7 15.7 31.9 31.9 60.7-60.7z" fill="#fe9359"/><use xlink:href="#y" transform="matrix(1,0,0,1,59.25,1542.7132122742587) translate(-1.2610833333333442 40.91199999999999)"/><use xlink:href="#t" transform="matrix(1,0,0,1,59.25,1542.7132122742587) translate(32.00224999999999 83.176)"/><path d="M1722.75 1511.43a8 8 0 0 1 8-8h144a8 8 0 0 1 8 8v94.5a8 8 0 0 1-8 8h-144a8 8 0 0 1-8-8z" stroke="#fff" fill="#fe5900"/><path d="M1810.25 1598.66c.7-8.94 3.9-18.8 8.9-25.8 1.4-1.83 3.9-4.87 5.9-7.08 7-5.52 11.5-13.8 11.5-23.03 0-16.48-14.4-29.93-32.2-30.1h-.6c-17.8.17-32.3 13.52-32.3 29.92 0 10.13 5.5 18.97 13.7 24.4 1.9 2.03 3.9 4.24 5 5.8 5 7 8.2 17.14 9 25.98.2 2.57 2.7 6 5.5 6h.1c2.8 0 5.3-3.43 5.5-6.1m-6.2-43c-4.7 0-8.7-2.12-11.4-5.16-2-2.3-3.2-5.16-3.2-8.3 0-7.46 6.5-13.44 14.6-13.44 4.3 0 8.2 1.83 10.9 4.6 2.2 2.4 3.6 5.44 3.6 8.84 0 7.37-6.5 13.45-14.5 13.45" fill="#fe9359"/><use xlink:href="#z" transform="matrix(1,0,0,1,1727.75,1508.4301063252356) translate(40.807249999999996 57.544)"/><path d="M2505.5 1620.7v26.5a12 12 0 0 1-12 12H2413a12 12 0 0 1-12-12V859.83a12 12 0 0 0-12-12h-325.5a12 12 0 0 0-12 12v18.27" stroke="#fcc438" stroke-width="3" fill="none"/><path d="M2507 1620.73h-3v-1.54h3z" stroke="#fcc438" stroke-width=".05" fill="#fcc438"/><path d="M2051.5 893.87l-4.63-14.26h9.27z" stroke="#fcc438" stroke-width="3" fill="#fcc438"/><path d="M1971.5 907.23a8 8 0 0 1 8-8h144a8 8 0 0 1 8 8v104a8 8 0 0 1-8 8h-144a8 8 0 0 1-8-8z" stroke="#fff" fill="#fe5900"/><path d="M2101.5 964.33c1.7 0 2.5-2.4 1.3-3.5l-49.2-49.4-49.3 49.5c-1.2 1.1-.4 3.4 1.3 3.4h8.6v44.9h26.2v-37.4h22.5v37.4h26.3v-44.9h12.3zm-76.1-48.6h-14.9v26.3l14.9-14.9v-11.4z" fill="#fe9359"/><use xlink:href="#A" transform="matrix(1,0,0,1,1976.5,904.2282168690411) translate(-0.1849166666666786 62.044)"/><path d="M2621.5 905.57a8 8 0 0 1 8-8h144a8 8 0 0 1 8 8v104a8 8 0 0 1-8 8h-144a8 8 0 0 1-8-8z" stroke="#fff" fill="#fe5900"/><path d="M2701.5 1003.67c6.4 0 12.5-1.3 18.1-3.6l-23.2-40.8v-47.5c-2 .2-3.9.6-5.8 1-20.2 4.9-35.2 23.1-35.2 44.8 0 25.5 20.6 46.1 46.1 46.1m28.7-82.2c-5.1-4.1-11.1-7.1-17.6-8.7-3.1-.7-6.2-1.2-9.4-1.3v42.9l27-32.9zm-24.4 40.5l19.8 34.9c13.2-8.1 22-22.7 22-39.3 0-12.2-4.7-23.2-12.3-31.5l-29.5 35.9z" fill="#fe9359"/><use xlink:href="#B" transform="matrix(1,0,0,1,2626.5,902.5698936747644) translate(13.462833333333323 40.91199999999999)"/><use xlink:href="#C" transform="matrix(1,0,0,1,2626.5,902.5698936747644) translate(46.677249999999994 83.176)"/><path d="M2505.5 1620.7v26.5a12 12 0 0 0 12 12h101a12 12 0 0 0 12-12v-33.7a12 12 0 0 1 12-12h40.5a12 12 0 0 0 12-12v-356a12 12 0 0 0-12-12h-61.75a12 12 0 0 1-12-12v-356a12 12 0 0 1 12-12h65.97a7.8 7.8 0 0 1 7.78 7.78v4.54a3.25 3.25 0 0 0 3.25 3.25 3.25 3.25 0 0 1 3.25 3.25v16.13" stroke="#fcc438" stroke-width="3" fill="none"/><path d="M2507 1620.73h-3v-1.54h3z" stroke="#fcc438" stroke-width=".05" fill="#fcc438"/><path d="M2701.5 892.22l-4.64-14.27h9.28z" stroke="#fcc438" stroke-width="3" fill="#fcc438"/><path d="M2621.5 1065.57a8 8 0 0 1 8-8h144a8 8 0 0 1 8 8v94.5a8 8 0 0 1-8 8h-144a8 8 0 0 1-8-8z" stroke="#fff" fill="#fe5900"/><path d="M2655.3 1127h92.4v9.5h-92.4v-9.5zm0 18.9h92.4v9.47h-92.4v-9.48zm87.2-74.33c-1.5-.83-3.2-1.3-5.1-1.3h-71.9c-1.8 0-3.5.47-5 1.3-3.1 1.56-5.2 4.6-5.2 8.2v25.13c0 5.25 4.6 9.5 10.2 9.5h71.9c5.7 0 10.3-4.25 10.3-9.5v-25.14c0-3.6-2.1-6.63-5.2-8.2m-68.5 34.64l20.5-26.8 12.6 16.57 8-6.16 13.8 16.4H2674z" fill="#fe9359"/><use xlink:href="#D" transform="matrix(1,0,0,1,2626.5,1062.5698936747644) translate(15.419499999999987 36.41199999999999)"/><use xlink:href="#E" transform="matrix(1,0,0,1,2626.5,1062.5698936747644) translate(26.181166666666662 78.676)"/><path d="M2701.5 1019.57v16.88" stroke="#fcc438" stroke-width="3" fill="none"/><path d="M2703 1019.6h-3v-1.53h3z" stroke="#fcc438" stroke-width=".05" fill="#fcc438"/><path d="M2701.5 1052.22l-4.64-14.27h9.28z" stroke="#fcc438" stroke-width="3" fill="#fcc438"/><path d="M3111.5 1064a8 8 0 0 1 8-8h144a8 8 0 0 1 8 8v104a8 8 0 0 1-8 8h-144a8 8 0 0 1-8-8z" stroke="#fff" fill="#fe5900"/><path d="M3152.6 1155.2h77.8c6.1 0 11.1-4.9 11.1-11.1v-55.5c0-6.2-5-11.1-11.1-11.1h-77.8c-6.1 0-11.1 4.9-11.1 11.1v55.5c0 6.2 5 11.1 11.1 11.1m44.5-55.5h37v7.4h-37v-7.4zm0 14.8h37v7.4h-37v-7.4zm0 14.8h37v7.4h-37v-7.4zm-29-33.7c5.4 0 9.7 4.3 9.7 9.7 0 5.4-4.3 9.7-9.7 9.7-5.3 0-9.7-4.3-9.7-9.7 0-5.4 4.4-9.7 9.7-9.7m.2 23.3c9.3 0 17 7.8 17.8 17.8.1 1.3-.4 2.5-1.5 3.2-4.7 2.9-10.3 4.6-16.3 4.6s-11.5-1.7-16.3-4.6c-1-.7-1.6-1.9-1.5-3.2.9-10 8.5-17.8 17.8-17.8" fill="#fe9359"/><use xlink:href="#F" transform="matrix(1,0,0,1,3116.5,1061) translate(11.408333333333333 40.91199999999999)"/><use xlink:href="#C" transform="matrix(1,0,0,1,3116.5,1061) translate(46.677249999999994 83.176)"/><path d="M2505.5 1620.7V1743a12 12 0 0 0 12 12h251.25a12 12 0 0 0 12-12v-166.7a12 12 0 0 0-12-12H2756a12 12 0 0 1-12-12v-126.7a12 12 0 0 1 12-12h123a12 12 0 0 0 12-12V878a12 12 0 0 1 12-12h276.5a12 12 0 0 1 12 12v156.88" stroke="#fcc438" stroke-width="3" fill="none"/><path d="M2507 1620.73h-3v-1.54h3z" stroke="#fcc438" stroke-width=".05" fill="#fcc438"/><path d="M3191.5 1050.65l-4.64-14.27h9.28z" stroke="#fcc438" stroke-width="3" fill="#fcc438"/><path d="M521 962.36v271.78a12 12 0 0 1-12 12H386a12 12 0 0 0-12 12v252.67" stroke="#fcc438" stroke-width="3" fill="none"/><path d="M522.5 962.4h-3v-1.54h3z" stroke="#fcc438" stroke-width=".05" fill="#fcc438"/><path d="M374 1526.57l-4.63-14.26h9.26z" stroke="#fcc438" stroke-width="3" fill="#fcc438"/><path d="M521 962.36v13a12 12 0 0 1-12 12h-77.88a12 12 0 0 0-12 12v146.25a12 12 0 0 1-12 12H146.25a12 12 0 0 0-12 12v347" stroke="#fcc438" stroke-width="3" fill="none"/><path d="M522.5 962.4h-3v-1.54h3z" stroke="#fcc438" stroke-width=".05" fill="#fcc438"/><path d="M134.25 1532.36l-4.63-14.27h9.26z" stroke="#fcc438" stroke-width="3" fill="#fcc438"/><path d="M2940 1594.6a8 8 0 0 1 8-8h180a8 8 0 0 1 8 8v94.5a8 8 0 0 1-8 8h-180a8 8 0 0 1-8-8z" stroke="#fff" fill="#fe5900"/><path d="M3085.65 1604.83h-95.3c-7.46 0-13.6 4.6-13.6 10.22v51.2c0 5.63 6.14 10.23 13.6 10.23h95.3c7.5 0 13.6-4.6 13.6-10.22v-51.2c0-5.62-6.1-10.23-13.6-10.23m-90.16 32.88h13.47c4.28 0 7.73 2.58 7.73 5.8v5.8c0 3.14-3.57 5.82-7.73 5.82h-3.92v2.85c0 1.57-1.72 2.95-3.8 2.95-2.2 0-3.92-1.38-3.92-2.95v-2.86l-7.6.02c-2.2 0-3.93-1.3-3.93-2.96 0-1.55 1.73-2.85 3.94-2.85H3007c1.1 0 1.97-.63 1.97-1.46v-2.95c0-.75-.86-1.4-1.96-1.4h-13.47c-4.28 0-7.73-2.56-7.73-5.8v-5.8c0-3.22 3.45-5.8 7.73-5.8h3.8v-2.76c0-1.57 1.84-2.95 3.92-2.95s3.8 1.37 3.8 2.94v2.77h7.7c2.22 0 3.95 1.3 3.95 2.96 0 1.55-1.73 2.85-3.94 2.85h-17.27c-1.1 0-1.97.65-1.97 1.48v2.86c0 .83.86 1.47 1.96 1.47m36.74 0h13.48c4.28 0 7.73 2.58 7.73 5.8v5.8c0 3.14-3.45 5.82-7.73 5.82h-3.92v2.85c0 1.57-1.72 2.95-3.8 2.95s-3.8-1.38-3.8-2.95v-2.86l-7.7.02c-2.22 0-3.95-1.3-3.95-2.96 0-1.55 1.73-2.85 3.94-2.85h17.26c1.1 0 1.96-.63 1.96-1.46v-2.95c0-.75-.86-1.4-1.96-1.4h-13.48c-4.28 0-7.73-2.56-7.73-5.8v-5.8c0-3.22 3.45-5.8 7.73-5.8h3.92v-2.76c0-1.57 1.72-2.95 3.8-2.95s3.8 1.37 3.8 2.94v2.77h7.7c2.22 0 3.95 1.3 3.95 2.96 0 1.55-1.73 2.85-3.94 2.85h-17.26c-1.1 0-1.96.65-1.96 1.48v2.86c0 .83.86 1.47 1.96 1.47m36.75 0h13.47c4.28 0 7.73 2.58 7.73 5.8v5.8c0 3.14-3.45 5.82-7.73 5.82h-3.8v2.85c0 1.57-1.84 2.95-3.92 2.95s-3.8-1.38-3.8-2.95v-2.86l-7.7.02c-2.22 0-3.95-1.3-3.95-2.96 0-1.55 1.73-2.85 3.94-2.85h17.27c1.1 0 1.97-.63 1.97-1.46v-2.95c0-.75-.86-1.4-1.96-1.4h-13.47c-4.28 0-7.73-2.56-7.73-5.8v-5.8c0-3.22 3.45-5.8 7.73-5.8h3.92v-2.76c0-1.57 1.72-2.95 3.8-2.95s3.92 1.37 3.92 2.94v2.77h7.6c2.2 0 3.93 1.3 3.93 2.96 0 1.55-1.73 2.85-3.94 2.85H3069c-1.1 0-1.97.65-1.97 1.48v2.86c0 .83.86 1.47 1.96 1.47" fill="#fe9359"/><use xlink:href="#G" transform="matrix(1,0,0,1,2945,1591.5960876504714) translate(23.587249999999997 36.41199999999999)"/><use xlink:href="#H" transform="matrix(1,0,0,1,2945,1591.5960876504714) translate(0.15616666666666568 78.676)"/><path d="M3191.5 1178v191.3a12 12 0 0 1-12 12H3050a12 12 0 0 0-12 12v172.18" stroke="#fcc438" stroke-width="3" fill="none"/><path d="M3193 1178.04h-3v-1.54h3z" stroke="#fcc438" stroke-width=".05" fill="#fcc438"/><path d="M3038 1581.24l-4.64-14.26h9.28z" stroke="#fcc438" stroke-width="3" fill="#fcc438"/><path d="M3405.5 1247.07a8 8 0 0 1 8-8h144a8 8 0 0 1 8 8v94.52a8 8 0 0 1-8 8h-144a8 8 0 0 1-8-8z" stroke="#fff" fill="#fe5900"/><path d="M3442.9 1301.15h3.4c1.7 0 3.1.55 3.6 2.1.8 2.5 1.9 4.43 3.2 6.64.9 1.37.7 2.94-.5 4.05l-2.5 2.3c-.7.65-.7 1.75 0 2.4l7.9 7.27c.7.65 1.9.65 2.6 0l2.5-2.3c1.2-1.1 2.9-1.2 4.4-.47 2.4 1.2 5 2.2 7.8 2.95 1.6.47 2.8 1.75 2.8 3.32v3.13c0 .92.8 2.76 1.8 2.76h11.2c1 0 1.8-1.83 1.8-2.75v-3.13c0-1.57 1.2-2.85 2.8-3.32 2.8-.74 5.4-1.74 7.8-2.95 1.5-.73 3.2-.64 4.4.47l2.5 2.3c.7.65 1.9.65 2.6 0l7.9-7.28c.7-.64.7-1.65 0-2.3l-2.5-2.3c-1.2-1-1.3-2.58-.5-3.87 1.3-2.2 2.4-4.42 3.2-6.9.5-1.57 1.9-2.12 3.6-2.12h3.4c1 0 1.8-1.76 1.8-2.68v-10.22c0-1-.8-.74-1.8-.74h-3.4c-1.7 0-3.1-1.55-3.6-3.03-.8-2.57-1.9-5.52-3.2-7.73-.9-1.3-.7-2.94.5-4.05l2.5-2.32c.7-.64.7-1.74 0-2.4l-7.9-7.17c-.7-.73-1.9-.73-2.6 0l-2.5 2.22c-1.2 1.1-2.9 1.28-4.4.56-2.4-1.3-5-2.3-7.8-3.04-1.6-.47-2.8-1.76-2.8-3.32v-3.14c0-.92-.8-.64-1.8-.64h-11.2c-1 0-1.8-.28-1.8.64v3.14c0 1.56-1.2 2.85-2.8 3.32-2.8.73-5.4 1.74-7.8 3.04-1.5.72-3.2.55-4.4-.56l-2.5-2.2c-.7-.75-1.9-.75-2.6 0l-7.9 7.17c-.7.72-.7 1.83 0 2.48l2.5 2.4c1.2 1 1.4 2.75.5 4.13-1.3 2.22-2.4 4.9-3.2 7.47-.5 1.48-1.9 3.04-3.6 3.04h-3.4c-1 0-1.8-.26-1.8.75v10.22c0 .92.8 2.68 1.8 2.68m42.6-28.28c12.3 0 22.2 9.12 22.2 20.44 0 11.34-9.9 20.46-22.2 20.46-12.3 0-22.2-9.12-22.2-20.45 0-11.3 9.9-20.43 22.2-20.43" fill="#fe9359"/><use xlink:href="#I" transform="matrix(1,0,0,1,3410.5,1244.0735754514826) translate(11.45724999999999 57.544)"/><path d="M3191.5 1178v17.54a12 12 0 0 0 12 12h271.58a10.42 10.42 0 0 1 10.42 10.4" stroke="#fcc438" stroke-width="3" fill="none"/><path d="M3193 1178.04h-3v-1.54h3z" stroke="#fcc438" stroke-width=".05" fill="#fcc438"/><path d="M3485.5 1233.72l-4.64-14.27h9.28z" stroke="#fcc438" stroke-width="3" fill="#fcc438"/><path d="M673 1272.93a8 8 0 0 1 8-8h144a8 8 0 0 1 8 8v104a8 8 0 0 1-8 8H681a8 8 0 0 1-8-8z" stroke="#fff" fill="#fe5900"/><use xlink:href="#J" transform="matrix(1,0,0,1,678,1269.9264245485174) translate(29.067249999999987 40.91199999999999)"/><use xlink:href="#K" transform="matrix(1,0,0,1,678,1269.9264245485174) translate(19.234999999999992 83.176)"/><use xlink:href="#L" transform="matrix(1,0,0,1,678,1269.9264245485174) translate(107.285 83.176)"/><path d="M521 962.36v13a12 12 0 0 0 12 12h82.38a12 12 0 0 1 12 12v146.25a12 12 0 0 0 12 12H741a12 12 0 0 1 12 12v74.2" stroke="#fcc438" stroke-width="3" fill="none"/><path d="M522.5 962.4h-3v-1.54h3z" stroke="#fcc438" stroke-width=".05" fill="#fcc438"/><path d="M753 1259.57l-4.63-14.26h9.26z" stroke="#fcc438" stroke-width="3" fill="#fcc438"/><path d="M1943.25 1633.93a8 8 0 0 1 8-8h144a8 8 0 0 1 8 8v104a8 8 0 0 1-8 8h-144a8 8 0 0 1-8-8z" stroke="#fff" fill="#fe5900"/><path d="M2012.75 1711.23c7.4 0 14.3-2.2 20.1-6.1.1.1.2.3.3.5l24.7 24.7c1.4 1.3 3.1 2 4.9 2 1.8 0 3.5-.7 4.9-2 1.3-1.4 2-3.1 2-4.9 0-1.8-.7-3.5-2-4.9l-24.7-24.7c-.2-.1-.4-.2-.5-.3 3.9-5.8 6.1-12.7 6.1-20.1 0-19.8-16-35.9-35.8-35.9-19.8 0-35.9 16.1-35.9 35.9 0 19.8 16.1 35.8 35.9 35.8m0-61.4c14.1 0 25.5 11.5 25.5 25.6 0 14.1-11.4 25.5-25.5 25.5s-25.6-11.4-25.6-25.5 11.5-25.6 25.6-25.6" fill="#fe9359"/><use xlink:href="#M" transform="matrix(1,0,0,1,1948.25,1630.9301063252356) translate(23.926923611111107 61.457)"/><path d="M2051.5 1021.23v289.35a12 12 0 0 1-12 12h-4.25a12 12 0 0 0-12 12v270.23" stroke="#fcc438" stroke-width="3" fill="none"/><path d="M2053 1021.27h-3v-1.54h3z" stroke="#fcc438" stroke-width=".05" fill="#fcc438"/><path d="M2023.25 1620.58l-4.63-14.27h9.27z" stroke="#fcc438" stroke-width="3" fill="#fcc438"/><path d="M2051.5 1021.23v26.5a12 12 0 0 0 12 12h105a12 12 0 0 1 12 12v100.77a12 12 0 0 0 12 12h7a12 12 0 0 1 12 12v7.38" stroke="#fcc438" stroke-width="3" fill="none"/><path d="M2053 1021.27h-3v-1.54h3z" stroke="#fcc438" stroke-width=".05" fill="#fcc438"/><path d="M2211.5 1219.65l-4.64-14.27h9.28z" stroke="#fcc438" stroke-width="3" fill="#fcc438"/><path d="M2131.5 1233a8 8 0 0 1 8-8h144a8 8 0 0 1 8 8v104a8 8 0 0 1-8 8h-144a8 8 0 0 1-8-8z" stroke="#fff" fill="#fe5900"/><path d="M2165.3 1300.4h92.4v10.3h-92.4v-10.3zm0 20.5h92.4v10.3h-92.4v-10.3zm87.2-80.7c-1.5-.9-3.2-1.4-5.1-1.4h-71.9c-1.8 0-3.5.5-5 1.4-3.1 1.7-5.2 5-5.2 8.9v27.3c0 5.7 4.6 10.3 10.2 10.3h71.9c5.7 0 10.3-4.6 10.3-10.3v-27.3c0-3.9-2.1-7.2-5.2-8.9m-68.5 37.6l20.5-29.1 12.6 18 8-6.7 13.8 17.8H2184z" fill="#fe9359"/><use xlink:href="#N" transform="matrix(1,0,0,1,2136.5,1230) translate(38.899499999999996 40.91199999999999)"/><use xlink:href="#O" transform="matrix(1,0,0,1,2136.5,1230) translate(40.758333333333326 83.176)"/><path d="M3191.5 1178v87.7a12 12 0 0 0 12 12h30.75a12 12 0 0 1 12 12v77.23a12 12 0 0 0 12 12h166.25a12 12 0 0 1 12 12v169.8" stroke="#fcc438" stroke-width="3" fill="none"/><path d="M3193 1178.04h-3v-1.54h3z" stroke="#fcc438" stroke-width=".05" fill="#fcc438"/><path d="M3436.5 1576.5l-4.64-14.27h9.28z" stroke="#fcc438" stroke-width="3" fill="#fcc438"/><path d="M3356.5 1589.85a8 8 0 0 1 8-8h144a8 8 0 0 1 8 8v104a8 8 0 0 1-8 8h-144a8 8 0 0 1-8-8z" stroke="#fff" fill="#fe5900"/><path d="M3469.1 1639.85h-30.9v-6.8h17.2v-37.8h-41.2v37.8h17.2v6.8h-27.5v13.7h-13.7v34.4h34.3v-34.4h-13.7v-6.8h51.4v6.8h-13.7v34.4h34.3v-34.4h-13.7v-13.7z" fill="#fe9359"/><use xlink:href="#P" transform="matrix(1,0,0,1,3361.5,1586.8531501504713) translate(36.48220138888889 42.086)"/><use xlink:href="#Q" transform="matrix(1,0,0,1,3361.5,1586.8531501504713) translate(29.397437499999988 80.828)"/><path d="M3191.5 1178v238.18a12 12 0 0 0 12 12h30.75a12 12 0 0 1 12 12v120.55" stroke="#fcc438" stroke-width="3" fill="none"/><path d="M3193 1178.04h-3v-1.54h3z" stroke="#fcc438" stroke-width=".05" fill="#fcc438"/><path d="M3246.25 1576.5l-4.64-14.27h9.3z" stroke="#fcc438" stroke-width="3" fill="#fcc438"/><path d="M3166.25 1589.85a8 8 0 0 1 8-8h144a8 8 0 0 1 8 8v104a8 8 0 0 1-8 8h-144a8 8 0 0 1-8-8z" stroke="#fff" fill="#fe5900"/><path d="M3207.35 1688.15h77.8c6.1 0 11.1-5 11.1-11.1v-63c0-6.1-5-11.1-11.1-11.1h-11.1v-1.8c0-3.1-2.5-5.6-5.6-5.6-3.1 0-5.5 2.5-5.5 5.6v1.8h-33.4v-1.8c0-3.1-2.5-5.6-5.5-5.6-3.1 0-5.6 2.5-5.6 5.6v1.8h-11.1c-6.1 0-11.1 5-11.1 11.1v63c0 6.1 5 11.1 11.1 11.1m63-65.2h14.8v14.8h-14.8v-14.8zm0 22.2h14.8v14.9h-14.8v-14.9zm-22.2-22.2h14.8v14.8h-14.8v-14.8zm0 22.2h14.8v14.9h-14.8v-14.9zm0 22.3h14.8v14.8h-14.8v-14.8zm-22.3-44.5h14.8v14.8h-14.8v-14.8zm0 22.2h14.8v14.9h-14.8v-14.9zm0 22.3h14.8v14.8h-14.8v-14.8zm-18.5-22.3h11.1v14.9h-11.1v-14.9zm0 22.3h11.1v14.8h-11.1v-14.8z" fill="#fe9359"/><use xlink:href="#R" transform="matrix(1,0,0,1,3171.25,1586.8531501504713) translate(40.966229166666665 42.086)"/><use xlink:href="#S" transform="matrix(1,0,0,1,3171.25,1586.8531501504713) translate(44.374090277777775 80.828)"/><path d="M1089.5 1429a8 8 0 0 1 8-8h144a8 8 0 0 1 8 8v106.5a8 8 0 0 1-8 8h-144a8 8 0 0 1-8-8z" stroke="#fff" fill="#fe5900"/><path d="M1215.8 1458.27l-15.7-16.04-45 45.94-16.2-16.54-15.7 16.03 31.9 32.56 60.7-61.95z" fill="#fe9359"/><use xlink:href="#T" transform="matrix(1,0,0,1,1094.5,1426) translate(-2.97724305555556 43.586)"/><use xlink:href="#U" transform="matrix(1,0,0,1,1094.5,1426) translate(-6.429944444444443 82.328)"/><path d="M1169.5 1545.5v26.5a12 12 0 0 1-12 12h-80.25a8 8 0 0 1-8-8 8 8 0 0 0-8-8h-6.75a5.5 5.5 0 0 1-5.5-5.5 5.5 5.5 0 0 0-5.5-5.5H942.25a12 12 0 0 1-12-12V823.43a12 12 0 0 0-12-12H528.8a7.8 7.8 0 0 0-7.8 7.8" stroke="#fcc438" stroke-width="3" fill="none"/><path d="M1171 1545.54h-3V1544h3z" stroke="#fcc438" stroke-width=".05" fill="#fcc438"/><path d="M521 835l-4.63-14.26h9.26z" stroke="#fcc438" stroke-width="3" fill="#fcc438"/><path d="M1182.5 1295.24v26.5a12 12 0 0 0 12 12h150.8a12 12 0 0 0 12-12V1117.4a12 12 0 0 1 12-12h100.95a12 12 0 0 0 12-12v-87.6a12 12 0 0 1 12-12h37.25a12 12 0 0 0 12-12v-82.48a12 12 0 0 0-12-12h-161.7a12 12 0 0 0-12 12v88.13a10.13 10.13 0 0 1-10.14 10.12 10.13 10.13 0 0 1-10.12-10.13V869.08a12 12 0 0 0-12-12h-76.25a12 12 0 0 0-12 12v7.38" stroke="#fcc438" stroke-width="3" fill="none"/><path d="M1184 1295.28h-3v-1.54h3z" stroke="#fcc438" stroke-width=".05" fill="#fcc438"/><path d="M1237.3 892.22l-4.65-14.27h9.27z" stroke="#fcc438" stroke-width="3" fill="#fcc438"/><path d="M374 1653.93v26.5a12 12 0 0 1-12 12h-69a12 12 0 0 1-12-12v-422.3a12 12 0 0 1 12-12h.5a12 12 0 0 0 12-12V811.87a12 12 0 0 1 12-12H509a12 12 0 0 1 12 12v7.38" stroke="#fcc438" stroke-width="3" fill="none"/><path d="M375.5 1653.96h-3v-1.53h3z" stroke="#fcc438" stroke-width=".05" fill="#fcc438"/><path d="M521 835l-4.63-14.26h9.26z" stroke="#fcc438" stroke-width="3" fill="#fcc438"/><path d="M648.5 1545.7a8 8 0 0 1 8-8h144a8 8 0 0 1 8 8v104a8 8 0 0 1-8 8h-144a8 8 0 0 1-8-8z" stroke="#fff" stroke-width="3" fill="#fe5900"/><use xlink:href="#V" transform="matrix(1,0,0,1,653.5,1542.7132122742587) translate(41.863034722222224 42.086)"/><use xlink:href="#W" transform="matrix(1,0,0,1,653.5,1542.7132122742587) translate(39.12777777777777 80.828)"/><path d="M134.25 1659.7v62a12 12 0 0 0 12 12H1580.5a12 12 0 0 0 12-12V376.58a12 12 0 0 1 12-12h516.88a10.13 10.13 0 0 1 10.12 10.13 10.13 10.13 0 0 0 10.13 10.12h159.62a12 12 0 0 1 12 12v81.13a10.13 10.13 0 0 0 10.13 10.13 10.13 10.13 0 0 0 10.12-10.13V376.57a12 12 0 0 1 12-12h76.25a12 12 0 0 1 12 12v7.38" stroke="#fcc438" stroke-width="3" fill="none"/><path d="M135.75 1659.75h-3v-1.54h3z" stroke="#fcc438" stroke-width=".05" fill="#fcc438"/><path d="M2433.75 399.72l-4.64-14.27h9.3z" stroke="#fcc438" stroke-width="3" fill="#fcc438"/><path d="M753 1386.93v61.9a12 12 0 0 1-12 12h-.5a12 12 0 0 0-12 12v42.76" stroke="#fcc438" stroke-width="3" fill="none"/><path d="M754.5 1386.96h-3v-1.53h3z" stroke="#fcc438" stroke-width=".05" fill="#fcc438"/><path d="M728.5 1531.36l-4.63-14.27h9.26z" stroke="#fcc438" stroke-width="3" fill="#fcc438"/><path d="M728.5 1660.7a11.75 11.75 0 0 0 11.75 11.76H857a12 12 0 0 0 12-12V863.7a12 12 0 0 0-12-12h-12.75a12 12 0 0 0-12 12v64.66a12 12 0 0 1-12 12h-91.63a12 12 0 0 1-12-12v-116.5a12 12 0 0 0-12-12H533a12 12 0 0 0-12 12v7.38" stroke="#fcc438" stroke-width="3" fill="none"/><path d="M730 1660.75h-3v-1.54h3z" stroke="#fcc438" stroke-width=".05" fill="#fcc438"/><path d="M521 835l-4.63-14.26h9.26z" stroke="#fcc438" stroke-width="3" fill="#fcc438"/><path d="M1176.8 1019.57v9.5a12 12 0 0 0 12 12h134.45a12 12 0 0 1 12 12v154.22a12 12 0 0 1-12 12h-12.75a12 12 0 0 0-12 12v154.2a12 12 0 0 1-12 12H1061a12 12 0 0 0-12 12v60.75a12 12 0 0 0 12 12h7.38" stroke="#fcc438" stroke-width="3" fill="none"/><path d="M1178.3 1019.6h-3v-1.53h3z" stroke="#fcc438" stroke-width=".05" fill="#fcc438"/><path d="M1084.15 1482.25l-14.27 4.63v-9.27z" stroke="#fcc438" stroke-width="3" fill="#fcc438"/><path d="M2051.5 1021.23v26.5a12 12 0 0 1-12 12h-92a12 12 0 0 0-12 12v42.22a8.38 8.38 0 0 1-8.38 8.38 8.38 8.38 0 0 0-8.37 8.37v42.23a12 12 0 0 1-12 12h-92a12 12 0 0 0-12 12v285.38" stroke="#fcc438" stroke-width="3" fill="none"/><path d="M2053 1021.27h-3v-1.54h3z" stroke="#fcc438" stroke-width=".05" fill="#fcc438"/><path d="M1802.75 1498.08l-4.63-14.27h9.27z" stroke="#fcc438" stroke-width="3" fill="#fcc438"/><path d="M2425.5 1506.7a8 8 0 0 1 8-8h144a8 8 0 0 1 8 8v104a8 8 0 0 1-8 8h-144a8 8 0 0 1-8-8z" stroke="#fff" fill="#fe5900"/><use xlink:href="#X" transform="matrix(1,0,0,1,2430.5,1503.6871688252354) translate(14.441166666666662 62.044)"/><use xlink:href="#Y" transform="matrix(1,0,0,1,2430.5,1503.6871688252354) translate(80.87 62.044)"/><path d="M2433.75 493.1v489.8a12 12 0 0 0 12 12h47.75a12 12 0 0 1 12 12v470.67" stroke="#fcc438" stroke-width="3" fill="none"/><path d="M2435.25 493.13h-3v-1.54h3z" stroke="#fcc438" stroke-width=".05" fill="#fcc438"/><path d="M2505.5 1493.33l-4.64-14.26h9.28z" stroke="#fcc438" stroke-width="3" fill="#fcc438"/><path d="M2701.5 1170.08v26.5a12 12 0 0 0 12 12h96.5a12 12 0 0 0 12-12v-227a12 12 0 0 0-12-12h-7.38" stroke="#fcc438" stroke-width="3" fill="none"/><path d="M2703 1170.12h-3v-1.54h3z" stroke="#fcc438" stroke-width=".05" fill="#fcc438"/><path d="M2786.85 957.57l14.27-4.64v9.28z" stroke="#fcc438" stroke-width="3" fill="#fcc438"/><path d="M2211.5 1347v26.5a12 12 0 0 0 12 12h96a12 12 0 0 0 12-12V870.73a12 12 0 0 0-12-12h-256a12 12 0 0 0-12 12v7.38" stroke="#fcc438" stroke-width="3" fill="none"/><path d="M2213 1347.04h-3v-1.54h3z" stroke="#fcc438" stroke-width=".05" fill="#fcc438"/><path d="M2051.5 893.87l-4.63-14.26h9.27z" stroke="#fcc438" stroke-width="3" fill="#fcc438"/><path d="M2023.25 1747.93v26.5a12 12 0 0 1-12 12H1653.5a12 12 0 0 1-12-12v-903.7a12 12 0 0 1 12-12h386a12 12 0 0 1 12 12v7.38" stroke="#fcc438" stroke-width="3" fill="none"/><path d="M2024.75 1747.97h-3v-1.54h3z" stroke="#fcc438" stroke-width=".05" fill="#fcc438"/><path d="M2051.5 893.87l-4.63-14.26h9.27z" stroke="#fcc438" stroke-width="3" fill="#fcc438"/><path d="M1802.75 1615.94v26.5a12 12 0 0 1-12 12H1678a12 12 0 0 1-12-12V894a12 12 0 0 1 12-12h369.6" stroke="#fcc438" stroke-width="3" fill="none"/><path d="M1804.25 1615.98h-3v-1.54h3z" stroke="#fcc438" stroke-width=".05" fill="#fcc438"/><path d="M2050.4 894l-7.75-12.84 9.03-2.1z" stroke="#fcc438" stroke-width="3" fill="#fcc438"/><path d="M3485.5 1351.6v26.5a12 12 0 0 0 12 12h96a12 12 0 0 0 12-12v-202.35a12 12 0 0 0-12-12H3304a12 12 0 0 1-12-12v-35.13" stroke="#fcc438" stroke-width="3" fill="none"/><path d="M3487 1351.63h-3v-1.54h3z" stroke="#fcc438" stroke-width=".05" fill="#fcc438"/><path d="M3276.85 1116.15l14.4-4.2-.28 9.27z" stroke="#fcc438" stroke-width="3" fill="#fcc438"/><path d="M3436.5 1703.85v26.5a12 12 0 0 0 12 12h177.75a12 12 0 0 0 12-12V1149a12 12 0 0 0-12-12H3506.3a10.5 10.5 0 0 1-10.5-10.5 10.5 10.5 0 0 0-10.5-10.5h-192.68" stroke="#fcc438" stroke-width="3" fill="none"/><path d="M3438 1703.9h-3v-1.55h3z" stroke="#fcc438" stroke-width=".05" fill="#fcc438"/><path d="M3276.85 1116l14.27-4.63v9.27z" stroke="#fcc438" stroke-width="3" fill="#fcc438"/><path d="M3246.25 1703.85v26.5a12 12 0 0 1-12 12H2894a12 12 0 0 1-12-12v-211.6a12 12 0 0 1 12-12h21.75a12 12 0 0 0 12-12V1130a12 12 0 0 1 12-12h121.5a1 1 0 0 0 1-1 1 1 0 0 1 1-1h27.13" stroke="#fcc438" stroke-width="3" fill="none"/><path d="M3247.75 1703.9h-3v-1.55h3z" stroke="#fcc438" stroke-width=".05" fill="#fcc438"/><path d="M3106.15 1116l-14.27 4.63v-9.27z" stroke="#fcc438" stroke-width="3" fill="#fcc438"/><path d="M3038 1699.1v26.5a12 12 0 0 1-12 12h-86.25a12 12 0 0 1-12-12V1580a12 12 0 0 1 12-12H2977a12 12 0 0 0 12-12v-377a12 12 0 0 1 12-12h49.25a12 12 0 0 0 12-12v-27a12 12 0 0 1 12-12h16.13" stroke="#fcc438" stroke-width="3" fill="none"/><path d="M3039.5 1699.15h-3v-1.54h3z" stroke="#fcc438" stroke-width=".05" fill="#fcc438"/><path d="M3106.15 1116l-14.27 4.63v-9.27z" stroke="#fcc438" stroke-width="3" fill="#fcc438"/><defs><path d="M232-93c-1 65-40 97-104 97C67 4 28-28 28-90v-158h33c8 89-33 224 67 224 102 0 64-133 71-224h33v155" id="Z"/><path d="M135-143c-3-34-86-38-87 0 15 53 115 12 119 90S17 21 10-45l28-5c4 36 97 45 98 0-10-56-113-15-118-90-4-57 82-63 122-42 12 7 21 19 24 35" id="aa"/><path d="M100-194c63 0 86 42 84 106H49c0 40 14 67 53 68 26 1 43-12 49-29l28 8c-11 28-37 45-77 45C44 4 14-33 15-96c1-61 26-98 85-98zm52 81c6-60-76-77-97-28-3 7-6 17-6 28h103" id="ab"/><path d="M114-163C36-179 61-72 57 0H25l-1-190h30c1 12-1 29 2 39 6-27 23-49 58-41v29" id="ac"/><g id="a"><use transform="matrix(0.052932098765432097,0,0,0.052932098765432097,0,0)" xlink:href="#Z"/><use transform="matrix(0.052932098765432097,0,0,0.052932098765432097,13.709413580246913,0)" xlink:href="#aa"/><use transform="matrix(0.052932098765432097,0,0,0.052932098765432097,23.23719135802469,0)" xlink:href="#ab"/><use transform="matrix(0.052932098765432097,0,0,0.052932098765432097,33.823611111111106,0)" xlink:href="#ac"/></g><path d="M96-169c-40 0-48 33-48 73s9 75 48 75c24 0 41-14 43-38l32 2c-6 37-31 61-74 61-59 0-76-41-82-99-10-93 101-131 147-64 4 7 5 14 7 22l-32 3c-4-21-16-35-41-35" id="ad"/><path d="M24 0v-261h32V0H24" id="ae"/><path d="M24-231v-30h32v30H24zM24 0v-190h32V0H24" id="af"/><path d="M143 0L79-87 56-68V0H24v-261h32v163l83-92h37l-77 82L181 0h-38" id="ag"/><g id="b"><use transform="matrix(0.052932098765432097,0,0,0.052932098765432097,0,0)" xlink:href="#ad"/><use transform="matrix(0.052932098765432097,0,0,0.052932098765432097,9.527777777777777,0)" xlink:href="#ae"/><use transform="matrix(0.052932098765432097,0,0,0.052932098765432097,13.709413580246913,0)" xlink:href="#af"/><use transform="matrix(0.052932098765432097,0,0,0.052932098765432097,17.891049382716048,0)" xlink:href="#ad"/><use transform="matrix(0.052932098765432097,0,0,0.052932098765432097,27.418827160493827,0)" xlink:href="#ag"/></g><path d="M177-190C167-65 218 103 67 71c-23-6-38-20-44-43l32-5c15 47 100 32 89-28v-30C133-14 115 1 83 1 29 1 15-40 15-95c0-56 16-97 71-98 29-1 48 16 59 35 1-10 0-23 2-32h30zM94-22c36 0 50-32 50-73 0-42-14-75-50-75-39 0-46 34-46 75s6 73 46 73" id="ah"/><path d="M59-47c-2 24 18 29 38 22v24C64 9 27 4 27-40v-127H5v-23h24l9-43h21v43h35v23H59v120" id="ai"/><g id="c"><use transform="matrix(0.052932098765432097,0,0,0.052932098765432097,0,0)" xlink:href="#ac"/><use transform="matrix(0.052932098765432097,0,0,0.052932098765432097,6.29891975308642,0)" xlink:href="#ab"/><use transform="matrix(0.052932098765432097,0,0,0.052932098765432097,16.88533950617284,0)" xlink:href="#ah"/><use transform="matrix(0.052932098765432097,0,0,0.052932098765432097,27.471759259259258,0)" xlink:href="#af"/><use transform="matrix(0.052932098765432097,0,0,0.052932098765432097,31.653395061728393,0)" xlink:href="#aa"/><use transform="matrix(0.052932098765432097,0,0,0.052932098765432097,41.18117283950617,0)" xlink:href="#ai"/><use transform="matrix(0.052932098765432097,0,0,0.052932098765432097,46.47438271604938,0)" xlink:href="#ab"/><use transform="matrix(0.052932098765432097,0,0,0.052932098765432097,57.06080246913579,0)" xlink:href="#ac"/></g><g id="d"><use transform="matrix(0.052932098765432097,0,0,0.052932098765432097,0,0)" xlink:href="#ad"/><use transform="matrix(0.052932098765432097,0,0,0.052932098765432097,9.527777777777777,0)" xlink:href="#ae"/><use transform="matrix(0.052932098765432097,0,0,0.052932098765432097,13.709413580246913,0)" xlink:href="#af"/><use transform="matrix(0.052932098765432097,0,0,0.052932098765432097,17.891049382716048,0)" xlink:href="#ad"/><use transform="matrix(0.052932098765432097,0,0,0.052932098765432097,27.418827160493827,0)" xlink:href="#ag"/><use transform="matrix(0.052932098765432097,0,0,0.052932098765432097,36.946604938271605,0)" xlink:href="#aa"/></g><path d="M100-194c62-1 85 37 85 99 1 63-27 99-86 99S16-35 15-95c0-66 28-99 85-99zM99-20c44 1 53-31 53-75 0-43-8-75-51-75s-53 32-53 75 10 74 51 75" id="aj"/><path d="M117-194c89-4 53 116 60 194h-32v-121c0-31-8-49-39-48C34-167 62-67 57 0H25l-1-190h30c1 10-1 24 2 32 11-22 29-35 61-36" id="ak"/><g id="e"><use transform="matrix(0.052932098765432097,0,0,0.052932098765432097,0,0)" xlink:href="#ae"/><use transform="matrix(0.052932098765432097,0,0,0.052932098765432097,4.181635802469136,0)" xlink:href="#aj"/><use transform="matrix(0.052932098765432097,0,0,0.052932098765432097,14.768055555555556,0)" xlink:href="#ah"/><use transform="matrix(0.052932098765432097,0,0,0.052932098765432097,25.354475308641973,0)" xlink:href="#af"/><use transform="matrix(0.052932098765432097,0,0,0.052932098765432097,29.53611111111111,0)" xlink:href="#ak"/></g><path fill="#b2b2b2" d="M24 0v-248h52v208h133V0H24" id="al"/><path fill="#b2b2b2" d="M85 4C-2 5 27-109 22-190h50c7 57-23 150 33 157 60-5 35-97 40-157h50l1 190h-47c-2-12 1-28-3-38-12 25-28 42-61 42" id="am"/><path fill="#b2b2b2" d="M190-63c-7 42-38 67-86 67-59 0-84-38-90-98-12-110 154-137 174-36l-49 2c-2-19-15-32-35-32-30 0-35 28-38 64-6 74 65 87 74 30" id="an"/><path fill="#b2b2b2" d="M25-224v-37h50v37H25zM25 0v-190h50V0H25" id="ao"/><path fill="#b2b2b2" d="M88-194c31-1 46 15 58 34l-1-101h50l1 261h-48c-2-10 0-23-3-31C134-8 116 4 84 4 32 4 16-41 15-95c0-56 19-97 73-99zm17 164c33 0 40-30 41-66 1-37-9-64-41-64s-38 30-39 65c0 43 13 65 39 65" id="ap"/><path fill="#b2b2b2" d="M114-157C55-157 80-60 75 0H25v-261h50l-1 109c12-26 28-41 61-42 86-1 58 113 63 194h-50c-7-57 23-157-34-157" id="aq"/><path fill="#b2b2b2" d="M133-34C117-15 103 5 69 4 32 3 11-16 11-54c-1-60 55-63 116-61 1-26-3-47-28-47-18 1-26 9-28 27l-52-2c7-38 36-58 82-57s74 22 75 68l1 82c-1 14 12 18 25 15v27c-30 8-71 5-69-32zm-48 3c29 0 43-24 42-57-32 0-66-3-65 30 0 17 8 27 23 27" id="ar"/><path fill="#b2b2b2" d="M135-150c-39-12-60 13-60 57V0H25l-1-190h47c2 13-1 29 3 40 6-28 27-53 61-41v41" id="as"/><path fill="#b2b2b2" d="M115-3C79 11 28 4 28-45v-112H4v-33h27l15-45h31v45h36v33H77v99c-1 23 16 31 38 25v30" id="at"/><g id="f"><use transform="matrix(0.09783333333333336,0,0,0.09783333333333336,0,0)" xlink:href="#al"/><use transform="matrix(0.09783333333333336,0,0,0.09783333333333336,21.425500000000003,0)" xlink:href="#am"/><use transform="matrix(0.09783333333333336,0,0,0.09783333333333336,42.851000000000006,0)" xlink:href="#an"/><use transform="matrix(0.09783333333333336,0,0,0.09783333333333336,62.41766666666668,0)" xlink:href="#ao"/><use transform="matrix(0.09783333333333336,0,0,0.09783333333333336,72.20100000000001,0)" xlink:href="#ap"/><use transform="matrix(0.09783333333333336,0,0,0.09783333333333336,93.62650000000001,0)" xlink:href="#an"/><use transform="matrix(0.09783333333333336,0,0,0.09783333333333336,113.1931666666667,0)" xlink:href="#aq"/><use transform="matrix(0.09783333333333336,0,0,0.09783333333333336,134.61866666666668,0)" xlink:href="#ar"/><use transform="matrix(0.09783333333333336,0,0,0.09783333333333336,154.18533333333335,0)" xlink:href="#as"/><use transform="matrix(0.09783333333333336,0,0,0.09783333333333336,167.882,0)" xlink:href="#at"/></g><path fill="#b2b2b2" d="M199 0l-22-63H83L61 0H9l90-248h61L250 0h-51zm-33-102l-36-108c-10 38-24 72-36 108h72" id="au"/><path fill="#b2b2b2" d="M135-194c53 0 70 44 70 98 0 56-19 98-73 100-31 1-45-17-59-34 3 33 2 69 2 105H25l-1-265h48c2 10 0 23 3 31 11-24 29-35 60-35zM114-30c33 0 39-31 40-66 0-38-9-64-40-64-56 0-55 130 0 130" id="av"/><g id="g"><use transform="matrix(0.09783333333333336,0,0,0.09783333333333336,0,0)" xlink:href="#au"/><use transform="matrix(0.09783333333333336,0,0,0.09783333333333336,25.33883333333334,0)" xlink:href="#av"/><use transform="matrix(0.09783333333333336,0,0,0.09783333333333336,46.76433333333334,0)" xlink:href="#av"/></g><path fill="#b2b2b2" d="M230 0l2-204L168 0h-37L68-204 70 0H24v-248h70l56 185 57-185h69V0h-46" id="aw"/><g id="h"><use transform="matrix(0.09783333333333336,0,0,0.09783333333333336,0,0)" xlink:href="#aw"/><use transform="matrix(0.09783333333333336,0,0,0.09783333333333336,29.252166666666675,0)" xlink:href="#ar"/><use transform="matrix(0.09783333333333336,0,0,0.09783333333333336,48.818833333333345,0)" xlink:href="#av"/></g><path fill="#b2b2b2" d="M153-248C145-148 188 4 80 4 36 3 13-21 6-62l32-5c4 25 16 42 43 43 27 0 39-20 39-49v-147H72v-28h81" id="ax"/><path fill="#b2b2b2" d="M100-194c62-1 85 37 85 99 1 63-27 99-86 99S16-35 15-95c0-66 28-99 85-99zM99-20c44 1 53-31 53-75 0-43-8-75-51-75s-53 32-53 75 10 74 51 75" id="ay"/><path fill="#b2b2b2" d="M135-143c-3-34-86-38-87 0 15 53 115 12 119 90S17 21 10-45l28-5c4 36 97 45 98 0-10-56-113-15-118-90-4-57 82-63 122-42 12 7 21 19 24 35" id="az"/><path fill="#b2b2b2" d="M106-169C34-169 62-67 57 0H25v-261h32l-1 103c12-21 28-36 61-36 89 0 53 116 60 194h-32v-121c2-32-8-49-39-48" id="aA"/><path fill="#b2b2b2" d="M84 4C-5 8 30-112 23-190h32v120c0 31 7 50 39 49 72-2 45-101 50-169h31l1 190h-30c-1-10 1-25-2-33-11 22-28 36-60 37" id="aB"/><path fill="#b2b2b2" d="M141-36C126-15 110 5 73 4 37 3 15-17 15-53c-1-64 63-63 125-63 3-35-9-54-41-54-24 1-41 7-42 31l-33-3c5-37 33-52 76-52 45 0 72 20 72 64v82c-1 20 7 32 28 27v20c-31 9-61-2-59-35zM48-53c0 20 12 33 32 33 41-3 63-29 60-74-43 2-92-5-92 41" id="aC"/><g id="i"><use transform="matrix(0.09783333333333336,0,0,0.09783333333333336,0,0)" xlink:href="#ax"/><use transform="matrix(0.09783333333333336,0,0,0.09783333333333336,17.610000000000003,0)" xlink:href="#ay"/><use transform="matrix(0.09783333333333336,0,0,0.09783333333333336,37.17666666666668,0)" xlink:href="#az"/><use transform="matrix(0.09783333333333336,0,0,0.09783333333333336,54.786666666666676,0)" xlink:href="#aA"/><use transform="matrix(0.09783333333333336,0,0,0.09783333333333336,74.35333333333335,0)" xlink:href="#aB"/><use transform="matrix(0.09783333333333336,0,0,0.09783333333333336,93.92000000000002,0)" xlink:href="#aC"/></g><path fill="#b2b2b2" d="M212-179c-10-28-35-45-73-45-59 0-87 40-87 99 0 60 29 101 89 101 43 0 62-24 78-52l27 14C228-24 195 4 139 4 59 4 22-46 18-125c-6-104 99-153 187-111 19 9 31 26 39 46" id="aD"/><path fill="#b2b2b2" d="M114-163C36-179 61-72 57 0H25l-1-190h30c1 12-1 29 2 39 6-27 23-49 58-41v29" id="aE"/><path fill="#b2b2b2" d="M115-194c55 1 70 41 70 98S169 2 115 4C84 4 66-9 55-30l1 105H24l-1-265h31l2 30c10-21 28-34 59-34zm-8 174c40 0 45-34 45-75s-6-73-45-74c-42 0-51 32-51 76 0 43 10 73 51 73" id="aF"/><path fill="#b2b2b2" d="M100-194c63 0 86 42 84 106H49c0 40 14 67 53 68 26 1 43-12 49-29l28 8c-11 28-37 45-77 45C44 4 14-33 15-96c1-61 26-98 85-98zm52 81c6-60-76-77-97-28-3 7-6 17-6 28h103" id="aG"/><path fill="#b2b2b2" d="M117-194c89-4 53 116 60 194h-32v-121c0-31-8-49-39-48C34-167 62-67 57 0H25l-1-190h30c1 10-1 24 2 32 11-22 29-35 61-36" id="aH"/><path fill="#b2b2b2" d="M59-47c-2 24 18 29 38 22v24C64 9 27 4 27-40v-127H5v-23h24l9-43h21v43h35v23H59v120" id="aI"/><path fill="#b2b2b2" d="M24-231v-30h32v30H24zM24 0v-190h32V0H24" id="aJ"/><g id="j"><use transform="matrix(0.09783333333333336,0,0,0.09783333333333336,0,0)" xlink:href="#aD"/><use transform="matrix(0.09783333333333336,0,0,0.09783333333333336,25.33883333333334,0)" xlink:href="#aC"/><use transform="matrix(0.09783333333333336,0,0,0.09783333333333336,44.90550000000001,0)" xlink:href="#aE"/><use transform="matrix(0.09783333333333336,0,0,0.09783333333333336,56.54766666666668,0)" xlink:href="#aF"/><use transform="matrix(0.09783333333333336,0,0,0.09783333333333336,76.11433333333335,0)" xlink:href="#aG"/><use transform="matrix(0.09783333333333336,0,0,0.09783333333333336,95.68100000000001,0)" xlink:href="#aH"/><use transform="matrix(0.09783333333333336,0,0,0.09783333333333336,115.24766666666667,0)" xlink:href="#aI"/><use transform="matrix(0.09783333333333336,0,0,0.09783333333333336,125.031,0)" xlink:href="#aJ"/><use transform="matrix(0.09783333333333336,0,0,0.09783333333333336,132.75983333333335,0)" xlink:href="#aG"/><use transform="matrix(0.09783333333333336,0,0,0.09783333333333336,152.3265,0)" xlink:href="#aE"/></g><path fill="#b2b2b2" d="M32 76v-337h29V76H32" id="aK"/><use transform="matrix(0.09783333333333336,0,0,0.09783333333333336,0,0)" xlink:href="#aK" id="k"/><path fill="#b2b2b2" d="M30-248c118-7 216 8 213 122C240-48 200 0 122 0H30v-248zM63-27c89 8 146-16 146-99s-60-101-146-95v194" id="aL"/><path fill="#b2b2b2" d="M96-169c-40 0-48 33-48 73s9 75 48 75c24 0 41-14 43-38l32 2c-6 37-31 61-74 61-59 0-76-41-82-99-10-93 101-131 147-64 4 7 5 14 7 22l-32 3c-4-21-16-35-41-35" id="aM"/><path fill="#b2b2b2" d="M210-169c-67 3-38 105-44 169h-31v-121c0-29-5-50-35-48C34-165 62-65 56 0H25l-1-190h30c1 10-1 24 2 32 10-44 99-50 107 0 11-21 27-35 58-36 85-2 47 119 55 194h-31v-121c0-29-5-49-35-48" id="aN"/><path fill="#b2b2b2" d="M115-194c53 0 69 39 70 98 0 66-23 100-70 100C84 3 66-7 56-30L54 0H23l1-261h32v101c10-23 28-34 59-34zm-8 174c40 0 45-34 45-75 0-40-5-75-45-74-42 0-51 32-51 76 0 43 10 73 51 73" id="aO"/><g id="l"><use transform="matrix(0.09783333333333336,0,0,0.09783333333333336,0,0)" xlink:href="#aL"/><use transform="matrix(0.09783333333333336,0,0,0.09783333333333336,25.33883333333334,0)" xlink:href="#aG"/><use transform="matrix(0.09783333333333336,0,0,0.09783333333333336,44.90550000000001,0)" xlink:href="#aM"/><use transform="matrix(0.09783333333333336,0,0,0.09783333333333336,62.51550000000002,0)" xlink:href="#aG"/><use transform="matrix(0.09783333333333336,0,0,0.09783333333333336,82.0821666666667,0)" xlink:href="#aN"/><use transform="matrix(0.09783333333333336,0,0,0.09783333333333336,111.33433333333338,0)" xlink:href="#aO"/><use transform="matrix(0.09783333333333336,0,0,0.09783333333333336,130.90100000000004,0)" xlink:href="#aG"/><use transform="matrix(0.09783333333333336,0,0,0.09783333333333336,150.4676666666667,0)" xlink:href="#aE"/></g><path fill="#b2b2b2" d="M101-251c82-7 93 87 43 132L82-64C71-53 59-42 53-27h129V0H18c2-99 128-94 128-182 0-28-16-43-45-43s-46 15-49 41l-32-3c6-41 34-60 81-64" id="aP"/><path fill="#b2b2b2" d="M101-251c68 0 85 55 85 127S166 4 100 4C33 4 14-52 14-124c0-73 17-127 87-127zm-1 229c47 0 54-49 54-102s-4-102-53-102c-51 0-55 48-55 102 0 53 5 102 54 102" id="aQ"/><path fill="#b2b2b2" d="M68-38c1 34 0 65-14 84H32c9-13 17-26 17-46H33v-38h35" id="aR"/><g id="m"><use transform="matrix(0.09783333333333336,0,0,0.09783333333333336,0,0)" xlink:href="#aP"/><use transform="matrix(0.09783333333333336,0,0,0.09783333333333336,19.56666666666667,0)" xlink:href="#aQ"/><use transform="matrix(0.09783333333333336,0,0,0.09783333333333336,39.13333333333334,0)" xlink:href="#aR"/></g><path fill="#b2b2b2" d="M126-127c33 6 58 20 58 59 0 88-139 92-164 29-3-8-5-16-6-25l32-3c6 27 21 44 54 44 32 0 52-15 52-46 0-38-36-46-79-43v-28c39 1 72-4 72-42 0-27-17-43-46-43-28 0-47 15-49 41l-32-3c6-42 35-63 81-64 48-1 79 21 79 65 0 36-21 52-52 59" id="aS"/><g id="n"><use transform="matrix(0.09783333333333336,0,0,0.09783333333333336,0,0)" xlink:href="#aP"/><use transform="matrix(0.09783333333333336,0,0,0.09783333333333336,19.56666666666667,0)" xlink:href="#aQ"/><use transform="matrix(0.09783333333333336,0,0,0.09783333333333336,39.13333333333334,0)" xlink:href="#aP"/><use transform="matrix(0.09783333333333336,0,0,0.09783333333333336,58.70000000000001,0)" xlink:href="#aS"/></g><path fill="#fff" d="M197 0v-115H63V0H30v-248h33v105h134v-105h34V0h-34" id="aT"/><path fill="#fff" d="M100-194c62-1 85 37 85 99 1 63-27 99-86 99S16-35 15-95c0-66 28-99 85-99zM99-20c44 1 53-31 53-75 0-43-8-75-51-75s-53 32-53 75 10 74 51 75" id="aU"/><path fill="#fff" d="M210-169c-67 3-38 105-44 169h-31v-121c0-29-5-50-35-48C34-165 62-65 56 0H25l-1-190h30c1 10-1 24 2 32 10-44 99-50 107 0 11-21 27-35 58-36 85-2 47 119 55 194h-31v-121c0-29-5-49-35-48" id="aV"/><path fill="#fff" d="M100-194c63 0 86 42 84 106H49c0 40 14 67 53 68 26 1 43-12 49-29l28 8c-11 28-37 45-77 45C44 4 14-33 15-96c1-61 26-98 85-98zm52 81c6-60-76-77-97-28-3 7-6 17-6 28h103" id="aW"/><path fill="#fff" d="M0 4l72-265h28L28 4H0" id="aX"/><path fill="#fff" d="M24 0v-261h32V0H24" id="aY"/><path fill="#fff" d="M177-190C167-65 218 103 67 71c-23-6-38-20-44-43l32-5c15 47 100 32 89-28v-30C133-14 115 1 83 1 29 1 15-40 15-95c0-56 16-97 71-98 29-1 48 16 59 35 1-10 0-23 2-32h30zM94-22c36 0 50-32 50-73 0-42-14-75-50-75-39 0-46 34-46 75s6 73 46 73" id="aZ"/><path fill="#fff" d="M24-231v-30h32v30H24zM24 0v-190h32V0H24" id="ba"/><path fill="#fff" d="M117-194c89-4 53 116 60 194h-32v-121c0-31-8-49-39-48C34-167 62-67 57 0H25l-1-190h30c1 10-1 24 2 32 11-22 29-35 61-36" id="bb"/><path fill="#fff" d="M233-177c-1 41-23 64-60 70L243 0h-38l-65-103H63V0H30v-248c88 3 205-21 203 71zM63-129c60-2 137 13 137-47 0-61-80-42-137-45v92" id="bc"/><path fill="#fff" d="M135-143c-3-34-86-38-87 0 15 53 115 12 119 90S17 21 10-45l28-5c4 36 97 45 98 0-10-56-113-15-118-90-4-57 82-63 122-42 12 7 21 19 24 35" id="bd"/><path fill="#fff" d="M59-47c-2 24 18 29 38 22v24C64 9 27 4 27-40v-127H5v-23h24l9-43h21v43h35v23H59v120" id="be"/><path fill="#fff" d="M114-163C36-179 61-72 57 0H25l-1-190h30c1 12-1 29 2 39 6-27 23-49 58-41v29" id="bf"/><g id="o"><use transform="matrix(0.09783333333333336,0,0,0.09783333333333336,0,0)" xlink:href="#aT"/><use transform="matrix(0.09783333333333336,0,0,0.09783333333333336,25.33883333333334,0)" xlink:href="#aU"/><use transform="matrix(0.09783333333333336,0,0,0.09783333333333336,44.90550000000001,0)" xlink:href="#aV"/><use transform="matrix(0.09783333333333336,0,0,0.09783333333333336,74.15766666666669,0)" xlink:href="#aW"/><use transform="matrix(0.09783333333333336,0,0,0.09783333333333336,93.72433333333336,0)" xlink:href="#aX"/><use transform="matrix(0.09783333333333336,0,0,0.09783333333333336,103.5076666666667,0)" xlink:href="#aY"/><use transform="matrix(0.09783333333333336,0,0,0.09783333333333336,111.23650000000002,0)" xlink:href="#aU"/><use transform="matrix(0.09783333333333336,0,0,0.09783333333333336,130.8031666666667,0)" xlink:href="#aZ"/><use transform="matrix(0.09783333333333336,0,0,0.09783333333333336,150.36983333333336,0)" xlink:href="#ba"/><use transform="matrix(0.09783333333333336,0,0,0.09783333333333336,158.0986666666667,0)" xlink:href="#bb"/><use transform="matrix(0.09783333333333336,0,0,0.09783333333333336,177.66533333333336,0)" xlink:href="#aX"/><use transform="matrix(0.09783333333333336,0,0,0.09783333333333336,187.4486666666667,0)" xlink:href="#bc"/><use transform="matrix(0.09783333333333336,0,0,0.09783333333333336,212.7875,0)" xlink:href="#aW"/><use transform="matrix(0.09783333333333336,0,0,0.09783333333333336,232.35416666666669,0)" xlink:href="#aZ"/><use transform="matrix(0.09783333333333336,0,0,0.09783333333333336,251.92083333333335,0)" xlink:href="#ba"/><use transform="matrix(0.09783333333333336,0,0,0.09783333333333336,259.6496666666667,0)" xlink:href="#bd"/><use transform="matrix(0.09783333333333336,0,0,0.09783333333333336,277.2596666666667,0)" xlink:href="#be"/><use transform="matrix(0.09783333333333336,0,0,0.09783333333333336,287.04300000000006,0)" xlink:href="#aW"/><use transform="matrix(0.09783333333333336,0,0,0.09783333333333336,306.6096666666667,0)" xlink:href="#bf"/></g><path fill="#fff" d="M30 0v-248h33v221h125V0H30" id="bg"/><g id="p"><use transform="matrix(0.09783333333333336,0,0,0.09783333333333336,0,0)" xlink:href="#bg"/><use transform="matrix(0.09783333333333336,0,0,0.09783333333333336,19.56666666666667,0)" xlink:href="#aU"/><use transform="matrix(0.09783333333333336,0,0,0.09783333333333336,39.13333333333334,0)" xlink:href="#aZ"/><use transform="matrix(0.09783333333333336,0,0,0.09783333333333336,58.70000000000001,0)" xlink:href="#ba"/><use transform="matrix(0.09783333333333336,0,0,0.09783333333333336,66.42883333333334,0)" xlink:href="#bb"/><use transform="matrix(0.09783333333333336,0,0,0.09783333333333336,85.99550000000002,0)" xlink:href="#aX"/><use transform="matrix(0.09783333333333336,0,0,0.09783333333333336,95.77883333333335,0)" xlink:href="#bc"/><use transform="matrix(0.09783333333333336,0,0,0.09783333333333336,121.1176666666667,0)" xlink:href="#aW"/><use transform="matrix(0.09783333333333336,0,0,0.09783333333333336,140.68433333333337,0)" xlink:href="#aZ"/><use transform="matrix(0.09783333333333336,0,0,0.09783333333333336,160.25100000000003,0)" xlink:href="#ba"/><use transform="matrix(0.09783333333333336,0,0,0.09783333333333336,167.97983333333337,0)" xlink:href="#bd"/><use transform="matrix(0.09783333333333336,0,0,0.09783333333333336,185.5898333333334,0)" xlink:href="#be"/><use transform="matrix(0.09783333333333336,0,0,0.09783333333333336,195.37316666666672,0)" xlink:href="#aW"/><use transform="matrix(0.09783333333333336,0,0,0.09783333333333336,214.93983333333338,0)" xlink:href="#bf"/></g><g id="q"><use transform="matrix(0.09783333333333336,0,0,0.09783333333333336,0,0)" xlink:href="#bg"/><use transform="matrix(0.09783333333333336,0,0,0.09783333333333336,19.56666666666667,0)" xlink:href="#aU"/><use transform="matrix(0.09783333333333336,0,0,0.09783333333333336,39.13333333333334,0)" xlink:href="#aZ"/><use transform="matrix(0.09783333333333336,0,0,0.09783333333333336,58.70000000000001,0)" xlink:href="#ba"/><use transform="matrix(0.09783333333333336,0,0,0.09783333333333336,66.42883333333334,0)" xlink:href="#bb"/></g><g id="r"><use transform="matrix(0.09783333333333336,0,0,0.09783333333333336,0,0)" xlink:href="#bc"/><use transform="matrix(0.09783333333333336,0,0,0.09783333333333336,25.33883333333334,0)" xlink:href="#aW"/><use transform="matrix(0.09783333333333336,0,0,0.09783333333333336,44.90550000000001,0)" xlink:href="#aZ"/><use transform="matrix(0.09783333333333336,0,0,0.09783333333333336,64.47216666666668,0)" xlink:href="#ba"/><use transform="matrix(0.09783333333333336,0,0,0.09783333333333336,72.20100000000002,0)" xlink:href="#bd"/><use transform="matrix(0.09783333333333336,0,0,0.09783333333333336,89.81100000000002,0)" xlink:href="#be"/><use transform="matrix(0.09783333333333336,0,0,0.09783333333333336,99.59433333333335,0)" xlink:href="#aW"/><use transform="matrix(0.09783333333333336,0,0,0.09783333333333336,119.16100000000003,0)" xlink:href="#bf"/></g><path fill="#fff" d="M33 0v-248h34V0H33" id="bh"/><path fill="#fff" d="M108 0H70L1-190h34L89-25l56-165h34" id="bi"/><path fill="#fff" d="M141-36C126-15 110 5 73 4 37 3 15-17 15-53c-1-64 63-63 125-63 3-35-9-54-41-54-24 1-41 7-42 31l-33-3c5-37 33-52 76-52 45 0 72 20 72 64v82c-1 20 7 32 28 27v20c-31 9-61-2-59-35zM48-53c0 20 12 33 32 33 41-3 63-29 60-74-43 2-92-5-92 41" id="bj"/><path fill="#fff" d="M85-194c31 0 48 13 60 33l-1-100h32l1 261h-30c-2-10 0-23-3-31C134-8 116 4 85 4 32 4 16-35 15-94c0-66 23-100 70-100zm9 24c-40 0-46 34-46 75 0 40 6 74 45 74 42 0 51-32 51-76 0-42-9-74-50-73" id="bk"/><g id="s"><use transform="matrix(0.09783333333333336,0,0,0.09783333333333336,0,0)" xlink:href="#bh"/><use transform="matrix(0.09783333333333336,0,0,0.09783333333333336,9.783333333333335,0)" xlink:href="#bb"/><use transform="matrix(0.09783333333333336,0,0,0.09783333333333336,29.350000000000005,0)" xlink:href="#bi"/><use transform="matrix(0.09783333333333336,0,0,0.09783333333333336,46.96000000000001,0)" xlink:href="#bj"/><use transform="matrix(0.09783333333333336,0,0,0.09783333333333336,66.52666666666667,0)" xlink:href="#aY"/><use transform="matrix(0.09783333333333336,0,0,0.09783333333333336,74.25550000000001,0)" xlink:href="#ba"/><use transform="matrix(0.09783333333333336,0,0,0.09783333333333336,81.98433333333335,0)" xlink:href="#bk"/></g><g id="t"><use transform="matrix(0.09783333333333336,0,0,0.09783333333333336,0,0)" xlink:href="#bg"/><use transform="matrix(0.09783333333333336,0,0,0.09783333333333336,19.56666666666667,0)" xlink:href="#aU"/><use transform="matrix(0.09783333333333336,0,0,0.09783333333333336,39.13333333333334,0)" xlink:href="#aZ"/><use transform="matrix(0.09783333333333336,0,0,0.09783333333333336,58.70000000000001,0)" xlink:href="#ba"/><use transform="matrix(0.09783333333333336,0,0,0.09783333333333336,66.42883333333334,0)" xlink:href="#bb"/></g><g id="u"><use transform="matrix(0.09783333333333336,0,0,0.09783333333333336,0,0)" xlink:href="#ba"/><use transform="matrix(0.09783333333333336,0,0,0.09783333333333336,7.728833333333335,0)" xlink:href="#bb"/><use transform="matrix(0.09783333333333336,0,0,0.09783333333333336,27.295500000000008,0)" xlink:href="#bi"/><use transform="matrix(0.09783333333333336,0,0,0.09783333333333336,44.9055,0)" xlink:href="#bj"/><use transform="matrix(0.09783333333333336,0,0,0.09783333333333336,64.47216666666668,0)" xlink:href="#aY"/><use transform="matrix(0.09783333333333336,0,0,0.09783333333333336,72.20100000000002,0)" xlink:href="#ba"/><use transform="matrix(0.09783333333333336,0,0,0.09783333333333336,79.92983333333336,0)" xlink:href="#bk"/></g><path fill="#fff" d="M101-234c-31-9-42 10-38 44h38v23H63V0H32v-167H5v-23h27c-7-52 17-82 69-68v24" id="bl"/><g id="v"><use transform="matrix(0.09783333333333336,0,0,0.09783333333333336,0,0)" xlink:href="#ba"/><use transform="matrix(0.09783333333333336,0,0,0.09783333333333336,7.728833333333335,0)" xlink:href="#bb"/><use transform="matrix(0.09783333333333336,0,0,0.09783333333333336,27.295500000000008,0)" xlink:href="#bl"/><use transform="matrix(0.09783333333333336,0,0,0.09783333333333336,37.078833333333336,0)" xlink:href="#aU"/></g><path fill="#fff" d="M240 0l2-218c-23 76-54 145-80 218h-23L58-218 59 0H30v-248h44l77 211c21-75 51-140 76-211h43V0h-30" id="bm"/><g id="w"><use transform="matrix(0.09783333333333336,0,0,0.09783333333333336,0,0)" xlink:href="#bm"/><use transform="matrix(0.09783333333333336,0,0,0.09783333333333336,29.252166666666675,0)" xlink:href="#bj"/><use transform="matrix(0.09783333333333336,0,0,0.09783333333333336,48.818833333333345,0)" xlink:href="#ba"/><use transform="matrix(0.09783333333333336,0,0,0.09783333333333336,56.54766666666668,0)" xlink:href="#bb"/></g><path fill="#fff" d="M30-248c87 1 191-15 191 75 0 78-77 80-158 76V0H30v-248zm33 125c57 0 124 11 124-50 0-59-68-47-124-48v98" id="bn"/><g id="x"><use transform="matrix(0.09783333333333336,0,0,0.09783333333333336,0,0)" xlink:href="#bn"/><use transform="matrix(0.09783333333333336,0,0,0.09783333333333336,23.480000000000004,0)" xlink:href="#bj"/><use transform="matrix(0.09783333333333336,0,0,0.09783333333333336,43.046666666666674,0)" xlink:href="#aZ"/><use transform="matrix(0.09783333333333336,0,0,0.09783333333333336,62.613333333333344,0)" xlink:href="#aW"/></g><path fill="#fff" d="M185-189c-5-48-123-54-124 2 14 75 158 14 163 119 3 78-121 87-175 55-17-10-28-26-33-46l33-7c5 56 141 63 141-1 0-78-155-14-162-118-5-82 145-84 179-34 5 7 8 16 11 25" id="bo"/><path fill="#fff" d="M84 4C-5 8 30-112 23-190h32v120c0 31 7 50 39 49 72-2 45-101 50-169h31l1 190h-30c-1-10 1-25-2-33-11 22-28 36-60 37" id="bp"/><path fill="#fff" d="M96-169c-40 0-48 33-48 73s9 75 48 75c24 0 41-14 43-38l32 2c-6 37-31 61-74 61-59 0-76-41-82-99-10-93 101-131 147-64 4 7 5 14 7 22l-32 3c-4-21-16-35-41-35" id="bq"/><g id="y"><use transform="matrix(0.09783333333333336,0,0,0.09783333333333336,0,0)" xlink:href="#bo"/><use transform="matrix(0.09783333333333336,0,0,0.09783333333333336,23.480000000000004,0)" xlink:href="#bp"/><use transform="matrix(0.09783333333333336,0,0,0.09783333333333336,43.046666666666674,0)" xlink:href="#bq"/><use transform="matrix(0.09783333333333336,0,0,0.09783333333333336,60.65666666666668,0)" xlink:href="#bq"/><use transform="matrix(0.09783333333333336,0,0,0.09783333333333336,78.26666666666668,0)" xlink:href="#aW"/><use transform="matrix(0.09783333333333336,0,0,0.09783333333333336,97.83333333333334,0)" xlink:href="#bd"/><use transform="matrix(0.09783333333333336,0,0,0.09783333333333336,115.44333333333334,0)" xlink:href="#bl"/><use transform="matrix(0.09783333333333336,0,0,0.09783333333333336,125.22666666666667,0)" xlink:href="#bp"/><use transform="matrix(0.09783333333333336,0,0,0.09783333333333336,144.79333333333335,0)" xlink:href="#aY"/></g><path fill="#fff" d="M115-194c55 1 70 41 70 98S169 2 115 4C84 4 66-9 55-30l1 105H24l-1-265h31l2 30c10-21 28-34 59-34zm-8 174c40 0 45-34 45-75s-6-73-45-74c-42 0-51 32-51 76 0 43 10 73 51 73" id="br"/><g id="z"><use transform="matrix(0.09783333333333336,0,0,0.09783333333333336,0,0)" xlink:href="#bm"/><use transform="matrix(0.09783333333333336,0,0,0.09783333333333336,29.252166666666675,0)" xlink:href="#bj"/><use transform="matrix(0.09783333333333336,0,0,0.09783333333333336,48.818833333333345,0)" xlink:href="#br"/></g><path fill="#fff" d="M127-220V0H93v-220H8v-28h204v28h-85" id="bs"/><path fill="#fff" d="M115-194c53 0 69 39 70 98 0 66-23 100-70 100C84 3 66-7 56-30L54 0H23l1-261h32v101c10-23 28-34 59-34zm-8 174c40 0 45-34 45-75 0-40-5-75-45-74-42 0-51 32-51 76 0 43 10 73 51 73" id="bt"/><g id="A"><use transform="matrix(0.09783333333333336,0,0,0.09783333333333336,0,0)" xlink:href="#aT"/><use transform="matrix(0.09783333333333336,0,0,0.09783333333333336,25.33883333333334,0)" xlink:href="#aU"/><use transform="matrix(0.09783333333333336,0,0,0.09783333333333336,44.90550000000001,0)" xlink:href="#aV"/><use transform="matrix(0.09783333333333336,0,0,0.09783333333333336,74.15766666666669,0)" xlink:href="#aW"/><use transform="matrix(0.09783333333333336,0,0,0.09783333333333336,93.72433333333336,0)" xlink:href="#bs"/><use transform="matrix(0.09783333333333336,0,0,0.09783333333333336,111.23650000000002,0)" xlink:href="#bj"/><use transform="matrix(0.09783333333333336,0,0,0.09783333333333336,130.8031666666667,0)" xlink:href="#bt"/></g><g id="B"><use transform="matrix(0.09783333333333336,0,0,0.09783333333333336,0,0)" xlink:href="#bo"/><use transform="matrix(0.09783333333333336,0,0,0.09783333333333336,23.480000000000004,0)" xlink:href="#be"/><use transform="matrix(0.09783333333333336,0,0,0.09783333333333336,33.263333333333335,0)" xlink:href="#bj"/><use transform="matrix(0.09783333333333336,0,0,0.09783333333333336,52.83,0)" xlink:href="#be"/><use transform="matrix(0.09783333333333336,0,0,0.09783333333333336,62.613333333333344,0)" xlink:href="#ba"/><use transform="matrix(0.09783333333333336,0,0,0.09783333333333336,70.34216666666669,0)" xlink:href="#bd"/><use transform="matrix(0.09783333333333336,0,0,0.09783333333333336,87.95216666666668,0)" xlink:href="#be"/><use transform="matrix(0.09783333333333336,0,0,0.09783333333333336,97.73550000000002,0)" xlink:href="#ba"/><use transform="matrix(0.09783333333333336,0,0,0.09783333333333336,105.46433333333336,0)" xlink:href="#bq"/></g><g id="C"><use transform="matrix(0.09783333333333336,0,0,0.09783333333333336,0,0)" xlink:href="#bs"/><use transform="matrix(0.09783333333333336,0,0,0.09783333333333336,17.51216666666667,0)" xlink:href="#bj"/><use transform="matrix(0.09783333333333336,0,0,0.09783333333333336,37.078833333333336,0)" xlink:href="#bt"/></g><path fill="#fff" d="M143 0L79-87 56-68V0H24v-261h32v163l83-92h37l-77 82L181 0h-38" id="bu"/><g id="D"><use transform="matrix(0.09783333333333336,0,0,0.09783333333333336,0,0)" xlink:href="#bn"/><use transform="matrix(0.09783333333333336,0,0,0.09783333333333336,23.480000000000004,0)" xlink:href="#bj"/><use transform="matrix(0.09783333333333336,0,0,0.09783333333333336,43.046666666666674,0)" xlink:href="#bf"/><use transform="matrix(0.09783333333333336,0,0,0.09783333333333336,54.68883333333335,0)" xlink:href="#bu"/><use transform="matrix(0.09783333333333336,0,0,0.09783333333333336,72.29883333333335,0)" xlink:href="#ba"/><use transform="matrix(0.09783333333333336,0,0,0.09783333333333336,80.02766666666669,0)" xlink:href="#bb"/><use transform="matrix(0.09783333333333336,0,0,0.09783333333333336,99.59433333333337,0)" xlink:href="#aZ"/></g><path fill="#fff" d="M179-190L93 31C79 59 56 82 12 73V49c39 6 53-20 64-50L1-190h34L92-34l54-156h33" id="bv"/><g id="E"><use transform="matrix(0.09783333333333336,0,0,0.09783333333333336,0,0)" xlink:href="#aT"/><use transform="matrix(0.09783333333333336,0,0,0.09783333333333336,25.33883333333334,0)" xlink:href="#ba"/><use transform="matrix(0.09783333333333336,0,0,0.09783333333333336,33.067666666666675,0)" xlink:href="#bd"/><use transform="matrix(0.09783333333333336,0,0,0.09783333333333336,50.67766666666668,0)" xlink:href="#be"/><use transform="matrix(0.09783333333333336,0,0,0.09783333333333336,60.46100000000001,0)" xlink:href="#aU"/><use transform="matrix(0.09783333333333336,0,0,0.09783333333333336,80.02766666666668,0)" xlink:href="#bv"/></g><path fill="#fff" d="M205 0l-28-72H64L36 0H1l101-248h38L239 0h-34zm-38-99l-47-123c-12 45-31 82-46 123h93" id="bw"/><g id="F"><use transform="matrix(0.09783333333333336,0,0,0.09783333333333336,0,0)" xlink:href="#bw"/><use transform="matrix(0.09783333333333336,0,0,0.09783333333333336,23.480000000000004,0)" xlink:href="#bq"/><use transform="matrix(0.09783333333333336,0,0,0.09783333333333336,41.09,0)" xlink:href="#bq"/><use transform="matrix(0.09783333333333336,0,0,0.09783333333333336,58.7,0)" xlink:href="#aU"/><use transform="matrix(0.09783333333333336,0,0,0.09783333333333336,78.26666666666668,0)" xlink:href="#bp"/><use transform="matrix(0.09783333333333336,0,0,0.09783333333333336,97.83333333333334,0)" xlink:href="#bb"/><use transform="matrix(0.09783333333333336,0,0,0.09783333333333336,117.4,0)" xlink:href="#be"/></g><g id="G"><use transform="matrix(0.09783333333333336,0,0,0.09783333333333336,0,0)" xlink:href="#bn"/><use transform="matrix(0.09783333333333336,0,0,0.09783333333333336,23.480000000000004,0)" xlink:href="#bj"/><use transform="matrix(0.09783333333333336,0,0,0.09783333333333336,43.046666666666674,0)" xlink:href="#bv"/><use transform="matrix(0.09783333333333336,0,0,0.09783333333333336,60.65666666666668,0)" xlink:href="#aV"/><use transform="matrix(0.09783333333333336,0,0,0.09783333333333336,89.90883333333335,0)" xlink:href="#aW"/><use transform="matrix(0.09783333333333336,0,0,0.09783333333333336,109.4755,0)" xlink:href="#bb"/><use transform="matrix(0.09783333333333336,0,0,0.09783333333333336,129.04216666666667,0)" xlink:href="#be"/></g><g id="H"><use transform="matrix(0.09783333333333336,0,0,0.09783333333333336,0,0)" xlink:href="#bm"/><use transform="matrix(0.09783333333333336,0,0,0.09783333333333336,29.252166666666675,0)" xlink:href="#bj"/><use transform="matrix(0.09783333333333336,0,0,0.09783333333333336,48.818833333333345,0)" xlink:href="#bb"/><use transform="matrix(0.09783333333333336,0,0,0.09783333333333336,68.38550000000001,0)" xlink:href="#aZ"/><use transform="matrix(0.09783333333333336,0,0,0.09783333333333336,87.95216666666667,0)" xlink:href="#aW"/><use transform="matrix(0.09783333333333336,0,0,0.09783333333333336,107.51883333333333,0)" xlink:href="#aV"/><use transform="matrix(0.09783333333333336,0,0,0.09783333333333336,136.77100000000002,0)" xlink:href="#aW"/><use transform="matrix(0.09783333333333336,0,0,0.09783333333333336,156.33766666666668,0)" xlink:href="#bb"/><use transform="matrix(0.09783333333333336,0,0,0.09783333333333336,175.90433333333334,0)" xlink:href="#be"/></g><g id="I"><use transform="matrix(0.09783333333333336,0,0,0.09783333333333336,0,0)" xlink:href="#bo"/><use transform="matrix(0.09783333333333336,0,0,0.09783333333333336,23.480000000000004,0)" xlink:href="#aW"/><use transform="matrix(0.09783333333333336,0,0,0.09783333333333336,43.046666666666674,0)" xlink:href="#be"/><use transform="matrix(0.09783333333333336,0,0,0.09783333333333336,52.83000000000001,0)" xlink:href="#be"/><use transform="matrix(0.09783333333333336,0,0,0.09783333333333336,62.613333333333344,0)" xlink:href="#ba"/><use transform="matrix(0.09783333333333336,0,0,0.09783333333333336,70.34216666666669,0)" xlink:href="#bb"/><use transform="matrix(0.09783333333333336,0,0,0.09783333333333336,89.90883333333335,0)" xlink:href="#aZ"/><use transform="matrix(0.09783333333333336,0,0,0.09783333333333336,109.4755,0)" xlink:href="#bd"/></g><g id="J"><use transform="matrix(0.09783333333333336,0,0,0.09783333333333336,0,0)" xlink:href="#bc"/><use transform="matrix(0.09783333333333336,0,0,0.09783333333333336,25.33883333333334,0)" xlink:href="#aW"/><use transform="matrix(0.09783333333333336,0,0,0.09783333333333336,44.90550000000001,0)" xlink:href="#bd"/><use transform="matrix(0.09783333333333336,0,0,0.09783333333333336,62.51550000000002,0)" xlink:href="#aW"/><use transform="matrix(0.09783333333333336,0,0,0.09783333333333336,82.0821666666667,0)" xlink:href="#be"/></g><g id="K"><use transform="matrix(0.09783333333333336,0,0,0.09783333333333336,0,0)" xlink:href="#bn"/><use transform="matrix(0.09783333333333336,0,0,0.09783333333333336,23.480000000000004,0)" xlink:href="#bj"/><use transform="matrix(0.09783333333333336,0,0,0.09783333333333336,43.046666666666674,0)" xlink:href="#bd"/><use transform="matrix(0.09783333333333336,0,0,0.09783333333333336,60.65666666666668,0)" xlink:href="#bd"/></g><path fill="#fff" d="M234-2c-28 10-62 0-77-18C117 19 8 12 13-65c3-43 29-61 60-76-25-40-17-114 47-108 35 3 59 15 59 50 0 44-40 53-71 69 14 26 32 50 51 72 14-21 24-43 30-72l26 8c-9 33-21 57-38 82 13 13 33 22 57 15v23zM97-151c25-10 52-18 56-48-1-18-13-29-33-29-42 0-39 50-23 77zM42-66c-3 51 71 58 98 28-20-24-41-51-56-80-23 10-40 24-42 52" id="bx"/><use transform="matrix(0.09783333333333336,0,0,0.09783333333333336,0,0)" xlink:href="#bx" id="L"/><path fill="#fff" d="M106-169C34-169 62-67 57 0H25v-261h32l-1 103c12-21 28-36 61-36 89 0 53 116 60 194h-32v-121c2-32-8-49-39-48" id="by"/><g id="M"><use transform="matrix(0.08968055555555557,0,0,0.08968055555555557,0,0)" xlink:href="#bo"/><use transform="matrix(0.08968055555555557,0,0,0.08968055555555557,21.523333333333337,0)" xlink:href="#aW"/><use transform="matrix(0.08968055555555557,0,0,0.08968055555555557,39.45944444444445,0)" xlink:href="#bj"/><use transform="matrix(0.08968055555555557,0,0,0.08968055555555557,57.39555555555556,0)" xlink:href="#bf"/><use transform="matrix(0.08968055555555557,0,0,0.08968055555555557,68.06754166666667,0)" xlink:href="#bq"/><use transform="matrix(0.08968055555555557,0,0,0.08968055555555557,84.21004166666667,0)" xlink:href="#by"/></g><g id="N"><use transform="matrix(0.09783333333333336,0,0,0.09783333333333336,0,0)" xlink:href="#bw"/><use transform="matrix(0.09783333333333336,0,0,0.09783333333333336,23.480000000000004,0)" xlink:href="#aY"/><use transform="matrix(0.09783333333333336,0,0,0.09783333333333336,31.20883333333334,0)" xlink:href="#aW"/><use transform="matrix(0.09783333333333336,0,0,0.09783333333333336,50.77550000000001,0)" xlink:href="#bf"/><use transform="matrix(0.09783333333333336,0,0,0.09783333333333336,62.41766666666668,0)" xlink:href="#be"/></g><g id="O"><use transform="matrix(0.09783333333333336,0,0,0.09783333333333336,0,0)" xlink:href="#bl"/><use transform="matrix(0.09783333333333336,0,0,0.09783333333333336,9.783333333333335,0)" xlink:href="#aW"/><use transform="matrix(0.09783333333333336,0,0,0.09783333333333336,29.350000000000005,0)" xlink:href="#aW"/><use transform="matrix(0.09783333333333336,0,0,0.09783333333333336,48.91666666666667,0)" xlink:href="#bk"/></g><g id="P"><use transform="matrix(0.08968055555555557,0,0,0.08968055555555557,0,0)" xlink:href="#bh"/><use transform="matrix(0.08968055555555557,0,0,0.08968055555555557,8.968055555555557,0)" xlink:href="#bb"/><use transform="matrix(0.08968055555555557,0,0,0.08968055555555557,26.904166666666672,0)" xlink:href="#bi"/><use transform="matrix(0.08968055555555557,0,0,0.08968055555555557,43.04666666666667,0)" xlink:href="#ba"/><use transform="matrix(0.08968055555555557,0,0,0.08968055555555557,50.13143055555555,0)" xlink:href="#be"/><use transform="matrix(0.08968055555555557,0,0,0.08968055555555557,59.09948611111111,0)" xlink:href="#aW"/></g><path fill="#fff" d="M63-220v92h138v28H63V0H30v-248h175v28H63" id="bz"/><g id="Q"><use transform="matrix(0.08968055555555557,0,0,0.08968055555555557,0,0)" xlink:href="#bz"/><use transform="matrix(0.08968055555555557,0,0,0.08968055555555557,19.64004166666667,0)" xlink:href="#bf"/><use transform="matrix(0.08968055555555557,0,0,0.08968055555555557,30.31202777777778,0)" xlink:href="#ba"/><use transform="matrix(0.08968055555555557,0,0,0.08968055555555557,37.39679166666667,0)" xlink:href="#aW"/><use transform="matrix(0.08968055555555557,0,0,0.08968055555555557,55.33290277777779,0)" xlink:href="#bb"/><use transform="matrix(0.08968055555555557,0,0,0.08968055555555557,73.2690138888889,0)" xlink:href="#bk"/></g><g id="R"><use transform="matrix(0.08968055555555557,0,0,0.08968055555555557,0,0)" xlink:href="#bo"/><use transform="matrix(0.08968055555555557,0,0,0.08968055555555557,21.523333333333337,0)" xlink:href="#be"/><use transform="matrix(0.08968055555555557,0,0,0.08968055555555557,30.491388888888892,0)" xlink:href="#bj"/><use transform="matrix(0.08968055555555557,0,0,0.08968055555555557,48.42750000000001,0)" xlink:href="#bf"/><use transform="matrix(0.08968055555555557,0,0,0.08968055555555557,59.09948611111112,0)" xlink:href="#be"/></g><g id="S"><use transform="matrix(0.08968055555555557,0,0,0.08968055555555557,0,0)" xlink:href="#bs"/><use transform="matrix(0.08968055555555557,0,0,0.08968055555555557,18.474194444444446,0)" xlink:href="#bf"/><use transform="matrix(0.08968055555555557,0,0,0.08968055555555557,29.14618055555556,0)" xlink:href="#ba"/><use transform="matrix(0.08968055555555557,0,0,0.08968055555555557,36.23094444444445,0)" xlink:href="#bj"/><use transform="matrix(0.08968055555555557,0,0,0.08968055555555557,54.167055555555564,0)" xlink:href="#aY"/></g><g id="T"><use transform="matrix(0.08968055555555557,0,0,0.08968055555555557,0,0)" xlink:href="#bo"/><use transform="matrix(0.08968055555555557,0,0,0.08968055555555557,21.523333333333337,0)" xlink:href="#bp"/><use transform="matrix(0.08968055555555557,0,0,0.08968055555555557,39.45944444444445,0)" xlink:href="#bq"/><use transform="matrix(0.08968055555555557,0,0,0.08968055555555557,55.601944444444456,0)" xlink:href="#bq"/><use transform="matrix(0.08968055555555557,0,0,0.08968055555555557,71.74444444444445,0)" xlink:href="#aW"/><use transform="matrix(0.08968055555555557,0,0,0.08968055555555557,89.68055555555557,0)" xlink:href="#bd"/><use transform="matrix(0.08968055555555557,0,0,0.08968055555555557,105.82305555555557,0)" xlink:href="#bd"/><use transform="matrix(0.08968055555555557,0,0,0.08968055555555557,121.96555555555557,0)" xlink:href="#bl"/><use transform="matrix(0.08968055555555557,0,0,0.08968055555555557,130.93361111111113,0)" xlink:href="#bp"/><use transform="matrix(0.08968055555555557,0,0,0.08968055555555557,148.86972222222224,0)" xlink:href="#aY"/></g><g id="U"><use transform="matrix(0.08968055555555557,0,0,0.08968055555555557,0,0)" xlink:href="#bc"/><use transform="matrix(0.08968055555555557,0,0,0.08968055555555557,23.227263888888892,0)" xlink:href="#aW"/><use transform="matrix(0.08968055555555557,0,0,0.08968055555555557,41.163375,0)" xlink:href="#aZ"/><use transform="matrix(0.08968055555555557,0,0,0.08968055555555557,59.09948611111112,0)" xlink:href="#ba"/><use transform="matrix(0.08968055555555557,0,0,0.08968055555555557,66.18425,0)" xlink:href="#bd"/><use transform="matrix(0.08968055555555557,0,0,0.08968055555555557,82.32675,0)" xlink:href="#be"/><use transform="matrix(0.08968055555555557,0,0,0.08968055555555557,91.29480555555556,0)" xlink:href="#bf"/><use transform="matrix(0.08968055555555557,0,0,0.08968055555555557,101.96679166666667,0)" xlink:href="#bj"/><use transform="matrix(0.08968055555555557,0,0,0.08968055555555557,119.90290277777777,0)" xlink:href="#ba"/><use transform="matrix(0.08968055555555557,0,0,0.08968055555555557,126.98766666666667,0)" xlink:href="#aU"/><use transform="matrix(0.08968055555555557,0,0,0.08968055555555557,144.9237777777778,0)" xlink:href="#bb"/></g><g id="V"><use transform="matrix(0.08968055555555557,0,0,0.08968055555555557,0,0)" xlink:href="#bc"/><use transform="matrix(0.08968055555555557,0,0,0.08968055555555557,23.227263888888892,0)" xlink:href="#aW"/><use transform="matrix(0.08968055555555557,0,0,0.08968055555555557,41.163375,0)" xlink:href="#bd"/><use transform="matrix(0.08968055555555557,0,0,0.08968055555555557,57.305875,0)" xlink:href="#be"/></g><g id="W"><use transform="matrix(0.08968055555555557,0,0,0.08968055555555557,0,0)" xlink:href="#br"/><use transform="matrix(0.08968055555555557,0,0,0.08968055555555557,17.936111111111114,0)" xlink:href="#bj"/><use transform="matrix(0.08968055555555557,0,0,0.08968055555555557,35.87222222222223,0)" xlink:href="#aZ"/><use transform="matrix(0.08968055555555557,0,0,0.08968055555555557,53.808333333333344,0)" xlink:href="#aW"/></g><g id="X"><use transform="matrix(0.09783333333333336,0,0,0.09783333333333336,0,0)" xlink:href="#bs"/><use transform="matrix(0.09783333333333336,0,0,0.09783333333333336,17.51216666666667,0)" xlink:href="#bj"/><use transform="matrix(0.09783333333333336,0,0,0.09783333333333336,37.078833333333336,0)" xlink:href="#bt"/></g><path fill="#fff" d="M160-131c35 5 61 23 61 61C221 17 115-2 30 0v-248c76 3 177-17 177 60 0 33-19 50-47 57zm-97-11c50-1 110 9 110-42 0-47-63-36-110-37v79zm0 115c55-2 124 14 124-45 0-56-70-42-124-44v89" id="bA"/><g id="Y"><use transform="matrix(0.09783333333333336,0,0,0.09783333333333336,0,0)" xlink:href="#bA"/><use transform="matrix(0.09783333333333336,0,0,0.09783333333333336,23.480000000000004,0)" xlink:href="#bj"/><use transform="matrix(0.09783333333333336,0,0,0.09783333333333336,43.046666666666674,0)" xlink:href="#bf"/></g></defs></g></svg>